<svg width="688" height="326" viewBox="0 0 688 326" fill="none" xmlns="http://www.w3.org/2000/svg">
<rect y="108" width="688" height="160" rx="6" fill="#D7FFE4"/>
<rect x="16" y="156" width="320" height="96" rx="6" fill="#14AE5C"/>
<rect x="352" y="156" width="320" height="96" rx="6" fill="#14AE5C"/>
<path d="M512.75 256C512.75 255.586 512.414 255.25 512 255.25C511.586 255.25 511.25 255.586 511.25 256H512.75ZM176.53 255.47C176.237 255.177 175.763 255.177 175.47 255.47L170.697 260.243C170.404 260.536 170.404 261.01 170.697 261.303C170.99 261.596 171.464 261.596 171.757 261.303L176 257.061L180.243 261.303C180.536 261.596 181.01 261.596 181.303 261.303C181.596 261.01 181.596 260.536 181.303 260.243L176.53 255.47ZM511.25 256V277H512.75V256H511.25ZM488 300.25H200V301.75H488V300.25ZM176.75 277V256H175.25V277H176.75ZM200 300.25C187.159 300.25 176.75 289.841 176.75 277H175.25C175.25 290.669 186.331 301.75 200 301.75V300.25ZM511.25 277C511.25 289.841 500.841 300.25 488 300.25V301.75C501.669 301.75 512.75 290.669 512.75 277H511.25Z" fill="#888888"/>
<path d="M247.713 295V285.136H249.477L252.622 293.004H252.731L255.876 285.136H257.639V295H256.245V287.761H256.142L253.244 295H252.109L249.217 287.761H249.108V295H247.713ZM262.264 295.144C260.589 295.144 259.721 294.139 259.721 292.382V287.576H261.204V292.033C261.204 293.264 261.655 293.872 262.742 293.872C263.932 293.872 264.567 293.127 264.567 291.931V287.576H266.044V295H264.567V293.879H264.451C264.096 294.679 263.344 295.144 262.264 295.144ZM270.832 295.048C269.198 295.048 268.529 294.474 268.529 293.045V288.745H267.366V287.576H268.529V285.703H270.039V287.576H271.632V288.745H270.039V292.689C270.039 293.489 270.34 293.817 271.071 293.817C271.297 293.817 271.427 293.811 271.632 293.79V294.973C271.393 295.014 271.119 295.048 270.832 295.048ZM275.245 295.123C273.83 295.123 272.784 294.262 272.784 292.915V292.901C272.784 291.575 273.782 290.803 275.552 290.693L277.562 290.577V289.921C277.562 289.107 277.049 288.656 276.044 288.656C275.224 288.656 274.684 288.957 274.506 289.483L274.5 289.511H273.071L273.078 289.463C273.255 288.246 274.424 287.433 276.113 287.433C277.979 287.433 279.032 288.362 279.032 289.921V295H277.562V293.947H277.446C277.008 294.699 276.229 295.123 275.245 295.123ZM274.26 292.854C274.26 293.537 274.841 293.94 275.641 293.94C276.749 293.94 277.562 293.216 277.562 292.259V291.623L275.75 291.739C274.725 291.801 274.26 292.17 274.26 292.84V292.854ZM283.772 295.048C282.138 295.048 281.469 294.474 281.469 293.045V288.745H280.306V287.576H281.469V285.703H282.979V287.576H284.572V288.745H282.979V292.689C282.979 293.489 283.28 293.817 284.012 293.817C284.237 293.817 284.367 293.811 284.572 293.79V294.973C284.333 295.014 284.059 295.048 283.772 295.048ZM289.183 295.144C287.009 295.144 285.696 293.66 285.696 291.309V291.302C285.696 288.984 287.036 287.433 289.108 287.433C291.179 287.433 292.45 288.93 292.45 291.158V291.678H287.187C287.214 293.1 287.993 293.927 289.217 293.927C290.167 293.927 290.734 293.455 290.912 293.072L290.94 293.018L292.368 293.011L292.355 293.072C292.109 294.05 291.083 295.144 289.183 295.144ZM289.114 288.649C288.103 288.649 287.337 289.34 287.207 290.618H290.981C290.864 289.292 290.119 288.649 289.114 288.649ZM296.76 295.144C294.969 295.144 293.834 294.303 293.691 293.059V293.052H295.174L295.181 293.059C295.366 293.619 295.906 293.995 296.788 293.995C297.704 293.995 298.339 293.578 298.339 292.97V292.956C298.339 292.491 297.991 292.177 297.129 291.979L295.947 291.705C294.545 291.384 293.896 290.748 293.896 289.661V289.654C293.896 288.362 295.099 287.433 296.781 287.433C298.476 287.433 299.563 288.28 299.693 289.49V289.497H298.278V289.483C298.134 288.964 297.608 288.574 296.774 288.574C295.96 288.574 295.372 288.978 295.372 289.572V289.586C295.372 290.051 295.714 290.338 296.548 290.536L297.724 290.803C299.153 291.138 299.836 291.746 299.836 292.819V292.833C299.836 294.207 298.524 295.144 296.76 295.144ZM307.93 295.048C306.296 295.048 305.626 294.474 305.626 293.045V288.745H304.464V287.576H305.626V285.703H307.137V287.576H308.73V288.745H307.137V292.689C307.137 293.489 307.438 293.817 308.169 293.817C308.395 293.817 308.524 293.811 308.73 293.79V294.973C308.49 295.014 308.217 295.048 307.93 295.048ZM310.373 295V284.664H311.857V288.704H311.966C312.328 287.911 313.039 287.433 314.119 287.433C315.781 287.433 316.697 288.424 316.697 290.194V295H315.22V290.543C315.22 289.312 314.707 288.704 313.62 288.704C312.534 288.704 311.857 289.449 311.857 290.646V295H310.373ZM321.731 295.144C319.557 295.144 318.245 293.66 318.245 291.309V291.302C318.245 288.984 319.585 287.433 321.656 287.433C323.727 287.433 324.999 288.93 324.999 291.158V291.678H319.735C319.762 293.1 320.542 293.927 321.765 293.927C322.715 293.927 323.283 293.455 323.461 293.072L323.488 293.018L324.917 293.011L324.903 293.072C324.657 294.05 323.631 295.144 321.731 295.144ZM321.663 288.649C320.651 288.649 319.885 289.34 319.756 290.618H323.529C323.413 289.292 322.668 288.649 321.663 288.649ZM330.351 295V284.664H331.834V290.707H331.944L334.89 287.576H336.626L333.53 290.707L336.831 295H335.027L332.47 291.664L331.834 292.3V295H330.351ZM338.803 286.25C338.291 286.25 337.874 285.833 337.874 285.327C337.874 284.814 338.291 284.397 338.803 284.397C339.309 284.397 339.733 284.814 339.733 285.327C339.733 285.833 339.309 286.25 338.803 286.25ZM338.058 295V287.576H339.535V295H338.058ZM341.541 295V287.576H343.024V288.704H343.134C343.496 287.911 344.207 287.433 345.287 287.433C346.948 287.433 347.864 288.424 347.864 290.194V295H346.388V290.543C346.388 289.312 345.875 288.704 344.788 288.704C343.701 288.704 343.024 289.449 343.024 290.646V295H341.541ZM352.899 295.144C350.725 295.144 349.412 293.66 349.412 291.309V291.302C349.412 288.984 350.752 287.433 352.823 287.433C354.895 287.433 356.166 288.93 356.166 291.158V291.678H350.902C350.93 293.1 351.709 293.927 352.933 293.927C353.883 293.927 354.45 293.455 354.628 293.072L354.655 293.018L356.084 293.011L356.07 293.072C355.824 294.05 354.799 295.144 352.899 295.144ZM352.83 288.649C351.819 288.649 351.053 289.34 350.923 290.618H354.696C354.58 289.292 353.835 288.649 352.83 288.649ZM360.579 295.048C358.945 295.048 358.275 294.474 358.275 293.045V288.745H357.113V287.576H358.275V285.703H359.786V287.576H361.378V288.745H359.786V292.689C359.786 293.489 360.086 293.817 360.818 293.817C361.043 293.817 361.173 293.811 361.378 293.79V294.973C361.139 295.014 360.866 295.048 360.579 295.048ZM363.726 286.25C363.214 286.25 362.797 285.833 362.797 285.327C362.797 284.814 363.214 284.397 363.726 284.397C364.232 284.397 364.656 284.814 364.656 285.327C364.656 285.833 364.232 286.25 363.726 286.25ZM362.981 295V287.576H364.458V295H362.981ZM369.588 295.144C367.421 295.144 366.095 293.667 366.095 291.268V291.254C366.095 288.902 367.414 287.433 369.581 287.433C371.447 287.433 372.562 288.485 372.767 289.928V289.962L371.345 289.969L371.338 289.948C371.174 289.217 370.572 288.67 369.588 288.67C368.351 288.67 367.606 289.654 367.606 291.254V291.268C367.606 292.908 368.364 293.906 369.588 293.906C370.518 293.906 371.092 293.482 371.331 292.683L371.345 292.648H372.767L372.753 292.71C372.486 294.152 371.427 295.144 369.588 295.144ZM380.006 295.123C378.59 295.123 377.545 294.262 377.545 292.915V292.901C377.545 291.575 378.543 290.803 380.313 290.693L382.323 290.577V289.921C382.323 289.107 381.81 288.656 380.805 288.656C379.985 288.656 379.445 288.957 379.267 289.483L379.26 289.511H377.832L377.839 289.463C378.016 288.246 379.185 287.433 380.874 287.433C382.74 287.433 383.793 288.362 383.793 289.921V295H382.323V293.947H382.207C381.769 294.699 380.99 295.123 380.006 295.123ZM379.021 292.854C379.021 293.537 379.602 293.94 380.402 293.94C381.509 293.94 382.323 293.216 382.323 292.259V291.623L380.511 291.739C379.486 291.801 379.021 292.17 379.021 292.84V292.854ZM388.533 295.048C386.899 295.048 386.229 294.474 386.229 293.045V288.745H385.067V287.576H386.229V285.703H387.74V287.576H389.333V288.745H387.74V292.689C387.74 293.489 388.041 293.817 388.772 293.817C388.998 293.817 389.128 293.811 389.333 293.79V294.973C389.094 295.014 388.82 295.048 388.533 295.048ZM393.739 295.048C392.105 295.048 391.435 294.474 391.435 293.045V288.745H390.273V287.576H391.435V285.703H392.946V287.576H394.538V288.745H392.946V292.689C392.946 293.489 393.246 293.817 393.978 293.817C394.203 293.817 394.333 293.811 394.538 293.79V294.973C394.299 295.014 394.026 295.048 393.739 295.048ZM396.114 295V287.576H397.597V288.697H397.707C397.973 287.911 398.664 287.446 399.655 287.446C399.894 287.446 400.154 287.48 400.304 287.515V288.882C400.038 288.827 399.785 288.793 399.504 288.793C398.37 288.793 397.597 289.49 397.597 290.563V295H396.114ZM402.338 286.25C401.825 286.25 401.408 285.833 401.408 285.327C401.408 284.814 401.825 284.397 402.338 284.397C402.844 284.397 403.267 284.814 403.267 285.327C403.267 285.833 402.844 286.25 402.338 286.25ZM401.593 295V287.576H403.069V295H401.593ZM409.02 295.123C407.981 295.123 407.167 294.645 406.737 293.831H406.627V295H405.144V284.664H406.627V288.752H406.737C407.133 287.952 408.001 287.446 409.02 287.446C410.906 287.446 412.096 288.93 412.096 291.281V291.295C412.096 293.626 410.893 295.123 409.02 295.123ZM408.603 293.858C409.84 293.858 410.585 292.888 410.585 291.295V291.281C410.585 289.688 409.84 288.718 408.603 288.718C407.365 288.718 406.6 289.695 406.6 291.281V291.295C406.6 292.881 407.365 293.858 408.603 293.858ZM416.187 295.144C414.512 295.144 413.644 294.139 413.644 292.382V287.576H415.127V292.033C415.127 293.264 415.579 293.872 416.666 293.872C417.855 293.872 418.491 293.127 418.491 291.931V287.576H419.967V295H418.491V293.879H418.375C418.019 294.679 417.267 295.144 416.187 295.144ZM424.756 295.048C423.122 295.048 422.452 294.474 422.452 293.045V288.745H421.29V287.576H422.452V285.703H423.963V287.576H425.555V288.745H423.963V292.689C423.963 293.489 424.263 293.817 424.995 293.817C425.221 293.817 425.35 293.811 425.555 293.79V294.973C425.316 295.014 425.043 295.048 424.756 295.048ZM430.166 295.144C427.992 295.144 426.68 293.66 426.68 291.309V291.302C426.68 288.984 428.02 287.433 430.091 287.433C432.162 287.433 433.434 288.93 433.434 291.158V291.678H428.17C428.197 293.1 428.977 293.927 430.2 293.927C431.15 293.927 431.718 293.455 431.896 293.072L431.923 293.018L433.352 293.011L433.338 293.072C433.092 294.05 432.067 295.144 430.166 295.144ZM430.098 288.649C429.086 288.649 428.32 289.34 428.191 290.618H431.964C431.848 289.292 431.103 288.649 430.098 288.649ZM437.744 295.144C435.953 295.144 434.818 294.303 434.674 293.059V293.052H436.158L436.164 293.059C436.349 293.619 436.889 293.995 437.771 293.995C438.687 293.995 439.323 293.578 439.323 292.97V292.956C439.323 292.491 438.974 292.177 438.113 291.979L436.93 291.705C435.529 291.384 434.879 290.748 434.879 289.661V289.654C434.879 288.362 436.082 287.433 437.764 287.433C439.459 287.433 440.546 288.28 440.676 289.49V289.497H439.261V289.483C439.118 288.964 438.591 288.574 437.757 288.574C436.944 288.574 436.356 288.978 436.356 289.572V289.586C436.356 290.051 436.698 290.338 437.532 290.536L438.707 290.803C440.136 291.138 440.82 291.746 440.82 292.819V292.833C440.82 294.207 439.507 295.144 437.744 295.144ZM313.911 319.141C312.286 319.141 311.208 318.117 311.208 316.578C311.208 315.062 312.301 314.172 314.286 314.055L316.52 313.938V313.188C316.52 312.211 315.911 311.664 314.817 311.664C313.911 311.664 313.262 312.055 313.059 312.727H311.528C311.684 311.32 313.02 310.367 314.848 310.367C316.903 310.367 318.075 311.398 318.075 313.188V319.008H316.583V317.766H316.434C316.028 318.641 315.114 319.141 313.911 319.141ZM314.395 317.836C315.614 317.836 316.52 317.031 316.52 315.945V315.047L314.497 315.148C313.364 315.211 312.77 315.68 312.77 316.508C312.77 317.328 313.395 317.836 314.395 317.836ZM325.235 310.352C327.196 310.352 328.446 311.75 328.446 313.969V315.523C328.446 317.742 327.196 319.141 325.235 319.141C324 319.141 323.11 318.602 322.766 317.648H322.618V321.859H321.008V310.484H322.579V311.836H322.727C323.125 310.867 324 310.352 325.235 310.352ZM324.711 311.742C323.407 311.742 322.579 312.664 322.579 314.125V315.398C322.579 316.867 323.407 317.789 324.711 317.789C326.024 317.789 326.86 316.859 326.86 315.398V314.125C326.86 312.664 326.024 311.742 324.711 311.742ZM334.949 310.352C336.91 310.352 338.16 311.75 338.16 313.969V315.523C338.16 317.742 336.91 319.141 334.949 319.141C333.715 319.141 332.824 318.602 332.481 317.648H332.332V321.859H330.723V310.484H332.293V311.836H332.442C332.84 310.867 333.715 310.352 334.949 310.352ZM334.426 311.742C333.121 311.742 332.293 312.664 332.293 314.125V315.398C332.293 316.867 333.121 317.789 334.426 317.789C335.739 317.789 336.574 316.859 336.574 315.398V314.125C336.574 312.664 335.739 311.742 334.426 311.742ZM347.734 319H340.586V317.734H343.438V308.438H340.648V307.164H345V317.734H347.734V319ZM351.285 322.047C351.043 322.047 350.746 322.031 350.644 322.023V320.703C350.73 320.719 350.988 320.727 351.113 320.727C351.933 320.727 352.379 320.383 352.691 319.484L352.824 319.062L349.722 310.484H351.441L353.683 317.453H353.793L356.019 310.484H357.683L354.558 319.258C353.816 321.375 353.019 322.047 351.285 322.047ZM361.57 313.359C361.57 310.641 362.398 308.273 363.976 306.492H365.562C363.921 308.844 363.242 310.859 363.242 313.359C363.242 315.867 363.921 317.875 365.562 320.227H363.976C362.398 318.445 361.57 316.078 361.57 313.359ZM375.003 313.359C375.003 316.078 374.175 318.445 372.597 320.227H371.011C372.652 317.875 373.331 315.867 373.331 313.359C373.331 310.859 372.652 308.844 371.011 306.492H372.597C374.175 308.273 375.003 310.641 375.003 313.359Z" fill="#888888"/>
<path d="M159.875 134.906H161.68C161.789 135.992 162.664 136.633 164.039 136.633C165.367 136.633 166.219 135.969 166.219 134.93C166.219 134.078 165.656 133.594 164.266 133.266L163.18 133.008C161.117 132.516 160.133 131.477 160.133 129.82C160.133 127.797 161.648 126.5 164.016 126.5C166.281 126.5 167.82 127.781 167.891 129.734H166.094C165.992 128.703 165.219 128.094 164.031 128.094C162.781 128.094 162.023 128.68 162.023 129.656C162.023 130.523 162.57 131.016 163.891 131.32L164.977 131.578C167.156 132.086 168.094 133.055 168.094 134.766C168.094 136.906 166.531 138.227 164.008 138.227C161.539 138.227 159.969 136.969 159.875 134.906ZM173.793 127.547C173.019 127.547 172.472 127.039 172.472 126.305C172.472 125.57 173.019 125.062 173.793 125.062C174.574 125.062 175.121 125.57 175.121 126.305C175.121 127.039 174.574 127.547 173.793 127.547ZM177.426 138H170.144V136.547H172.965V130.898H170.238V129.445H174.738V136.547H177.426V138ZM187.617 131.5V138H186.054V132.078C186.054 131.297 185.718 130.852 185.14 130.852C184.539 130.852 184.164 131.359 184.164 132.164V138H182.609V132.078C182.609 131.289 182.281 130.852 181.695 130.852C181.086 130.852 180.695 131.359 180.695 132.164V138H179.132V129.445H180.726V130.727H180.921C181.117 129.797 181.718 129.273 182.539 129.273C183.336 129.273 183.882 129.781 184.062 130.68H184.257C184.453 129.805 185.086 129.273 185.921 129.273C187.031 129.273 187.617 130.047 187.617 131.5ZM196.785 129.445V138H195.027V136.539H194.902C194.464 137.586 193.519 138.172 192.261 138.172C190.402 138.172 189.394 137.062 189.394 134.984V129.445H191.214V134.547C191.214 135.922 191.777 136.57 192.949 136.57C194.167 136.57 194.964 135.727 194.964 134.43V129.445H196.785ZM206.569 138H199.288V136.547H202.093V127.594H199.382V126.141H203.905V136.547H206.569V138ZM211.479 138.141C209.854 138.141 208.768 137.109 208.768 135.562C208.768 134.031 209.878 133.125 211.925 133L214.065 132.875V132.156C214.065 131.273 213.495 130.773 212.495 130.773C211.659 130.773 211.05 131.133 210.862 131.758H209.081C209.237 130.281 210.62 129.305 212.542 129.305C214.659 129.305 215.862 130.344 215.862 132.172V138H214.136V136.805H213.972C213.557 137.656 212.643 138.141 211.479 138.141ZM212.065 136.656C213.222 136.656 214.065 135.914 214.065 134.883V134.102L212.198 134.203C211.128 134.266 210.573 134.695 210.573 135.453C210.573 136.195 211.151 136.656 212.065 136.656ZM220.585 127.055H222.366V129.5H225.671V130.969H222.397V135.367C222.397 136.125 222.936 136.547 223.905 136.547C224.217 136.547 225.452 136.539 225.6 136.523V137.977C225.46 138 224.022 138.023 223.764 138.023C221.514 138.023 220.585 137.258 220.585 135.359V130.969H218.335V129.5H220.585V127.055ZM232.08 127.547C231.307 127.547 230.76 127.039 230.76 126.305C230.76 125.57 231.307 125.062 232.08 125.062C232.862 125.062 233.409 125.57 233.409 126.305C233.409 127.039 232.862 127.547 232.08 127.547ZM235.713 138H228.432V136.547H231.252V130.898H228.526V129.445H233.026V136.547H235.713V138ZM241.662 138.172C239.303 138.172 237.811 136.703 237.811 134.375V133.07C237.811 130.742 239.303 129.273 241.662 129.273C244.022 129.273 245.514 130.742 245.514 133.07V134.375C245.514 136.703 244.022 138.172 241.662 138.172ZM241.662 130.781C240.397 130.781 239.608 131.695 239.608 133.172V134.273C239.608 135.75 240.397 136.664 241.662 136.664C242.928 136.664 243.717 135.75 243.717 134.273V133.172C243.717 131.695 242.928 130.781 241.662 130.781ZM247.682 138V129.445H249.439V130.906H249.564C250.002 129.859 250.947 129.273 252.205 129.273C254.064 129.273 255.072 130.383 255.072 132.453V138H253.252V132.898C253.252 131.523 252.689 130.867 251.518 130.867C250.299 130.867 249.502 131.719 249.502 133.016V138H247.682ZM264.623 130.328L259.49 132.914V133.062L264.623 135.648V137.688L257.568 133.781V132.195L264.623 128.289V130.328ZM270.9 136.023L273.478 126.727H275.369L271.892 138H269.72L266.244 126.727H268.259L270.822 136.023H270.9ZM282.552 135.68H284.279C284.076 137.148 282.622 138.172 280.708 138.172C278.271 138.172 276.865 136.773 276.865 134.336V133C276.865 130.758 278.372 129.273 280.646 129.273C282.896 129.273 284.294 130.75 284.294 133.125V134.164H278.654V134.578C278.654 135.883 279.458 136.727 280.701 136.727C281.646 136.727 282.372 136.312 282.552 135.68ZM280.615 130.711C279.388 130.711 278.654 131.547 278.654 132.945H282.529C282.529 131.555 281.81 130.711 280.615 130.711ZM293.985 132.297H292.204C292.056 131.32 291.376 130.781 290.384 130.781C289.103 130.781 288.399 131.703 288.399 133.383V134.039C288.399 135.719 289.103 136.641 290.384 136.641C291.384 136.641 292.048 136.125 292.204 135.18H293.985C293.79 137.094 292.485 138.172 290.399 138.172C287.954 138.172 286.571 136.75 286.571 134.203V133.219C286.571 130.68 287.954 129.25 290.399 129.25C292.493 129.25 293.782 130.336 293.985 132.297ZM298.302 127.055H300.083V129.5H303.388V130.969H300.114V135.367C300.114 136.125 300.653 136.547 301.622 136.547C301.934 136.547 303.169 136.539 303.317 136.523V137.977C303.177 138 301.739 138.023 301.481 138.023C299.231 138.023 298.302 137.258 298.302 135.359V130.969H296.052V129.5H298.302V127.055ZM309.665 138.172C307.305 138.172 305.813 136.703 305.813 134.375V133.07C305.813 130.742 307.305 129.273 309.665 129.273C312.024 129.273 313.516 130.742 313.516 133.07V134.375C313.516 136.703 312.024 138.172 309.665 138.172ZM309.665 130.781C308.399 130.781 307.61 131.695 307.61 133.172V134.273C307.61 135.75 308.399 136.664 309.665 136.664C310.93 136.664 311.719 135.75 311.719 134.273V133.172C311.719 131.695 310.93 130.781 309.665 130.781ZM319.145 134.188V136.641H321.692V138H315.731V136.641H317.395V130.805H315.567V129.445H319.153V131.633H319.418C319.77 129.984 320.723 129.219 322.348 129.219C322.832 129.219 323.278 129.281 323.575 129.398V131.375C323.192 131.227 322.629 131.133 322.161 131.133C320.184 131.133 319.145 132.211 319.145 134.188ZM328.469 140.672H326.844L327.735 135.398H329.906L328.469 140.672ZM345.195 131.867C345.195 130.273 346.508 129.258 348.531 129.258C350.492 129.258 351.734 130.164 351.851 131.703H350.133C350.008 131.062 349.39 130.664 348.508 130.664C347.594 130.664 346.992 131.086 346.992 131.727C346.992 132.273 347.383 132.586 348.312 132.789L349.586 133.062C351.297 133.43 352.054 134.156 352.054 135.438C352.054 137.102 350.687 138.172 348.539 138.172C346.445 138.172 345.117 137.242 344.992 135.695H346.797C346.953 136.367 347.601 136.75 348.57 136.75C349.562 136.75 350.187 136.312 350.187 135.648C350.187 135.086 349.828 134.797 348.851 134.586L347.57 134.305C345.992 133.953 345.195 133.141 345.195 131.867ZM358.238 138.172C355.878 138.172 354.386 136.703 354.386 134.375V133.07C354.386 130.742 355.878 129.273 358.238 129.273C360.597 129.273 362.089 130.742 362.089 133.07V134.375C362.089 136.703 360.597 138.172 358.238 138.172ZM358.238 130.781C356.972 130.781 356.183 131.695 356.183 133.172V134.273C356.183 135.75 356.972 136.664 358.238 136.664C359.503 136.664 360.292 135.75 360.292 134.273V133.172C360.292 131.695 359.503 130.781 358.238 130.781ZM372.195 131.5V138H370.632V132.078C370.632 131.297 370.296 130.852 369.718 130.852C369.117 130.852 368.742 131.359 368.742 132.164V138H367.187V132.078C367.187 131.289 366.859 130.852 366.273 130.852C365.663 130.852 365.273 131.359 365.273 132.164V138H363.71V129.445H365.304V130.727H365.499C365.695 129.797 366.296 129.273 367.117 129.273C367.913 129.273 368.46 129.781 368.64 130.68H368.835C369.031 129.805 369.663 129.273 370.499 129.273C371.609 129.273 372.195 130.047 372.195 131.5ZM379.698 135.68H381.425C381.222 137.148 379.769 138.172 377.855 138.172C375.417 138.172 374.011 136.773 374.011 134.336V133C374.011 130.758 375.519 129.273 377.792 129.273C380.042 129.273 381.441 130.75 381.441 133.125V134.164H375.8V134.578C375.8 135.883 376.605 136.727 377.847 136.727C378.792 136.727 379.519 136.312 379.698 135.68ZM377.761 130.711C376.534 130.711 375.8 131.547 375.8 132.945H379.675C379.675 131.555 378.956 130.711 377.761 130.711ZM395.846 138H393.956V126.727H400.885V128.375H395.846V131.766H400.44V133.344H395.846V138ZM406.811 138.172C404.452 138.172 402.959 136.703 402.959 134.375V133.07C402.959 130.742 404.452 129.273 406.811 129.273C409.17 129.273 410.663 130.742 410.663 133.07V134.375C410.663 136.703 409.17 138.172 406.811 138.172ZM406.811 130.781C405.545 130.781 404.756 131.695 404.756 133.172V134.273C404.756 135.75 405.545 136.664 406.811 136.664C408.077 136.664 408.866 135.75 408.866 134.273V133.172C408.866 131.695 408.077 130.781 406.811 130.781ZM416.291 134.188V136.641H418.838V138H412.877V136.641H414.541V130.805H412.713V129.445H416.299V131.633H416.565C416.916 129.984 417.869 129.219 419.494 129.219C419.979 129.219 420.424 129.281 420.721 129.398V131.375C420.338 131.227 419.776 131.133 419.307 131.133C417.33 131.133 416.291 132.211 416.291 134.188ZM429.99 132.297H428.209C428.06 131.32 427.381 130.781 426.389 130.781C425.107 130.781 424.404 131.703 424.404 133.383V134.039C424.404 135.719 425.107 136.641 426.389 136.641C427.389 136.641 428.053 136.125 428.209 135.18H429.99C429.795 137.094 428.49 138.172 426.404 138.172C423.959 138.172 422.576 136.75 422.576 134.203V133.219C422.576 130.68 423.959 129.25 426.404 129.25C428.498 129.25 429.787 130.336 429.99 132.297ZM437.986 135.68H439.713C439.509 137.148 438.056 138.172 436.142 138.172C433.705 138.172 432.299 136.773 432.299 134.336V133C432.299 130.758 433.806 129.273 436.08 129.273C438.33 129.273 439.728 130.75 439.728 133.125V134.164H434.088V134.578C434.088 135.883 434.892 136.727 436.134 136.727C437.08 136.727 437.806 136.312 437.986 135.68ZM436.049 130.711C434.822 130.711 434.088 131.547 434.088 132.945H437.963C437.963 131.555 437.244 130.711 436.049 130.711ZM442.037 126.727H446.013C448.31 126.727 449.787 128.195 449.787 130.484C449.787 132.758 448.279 134.227 445.935 134.227H443.927V138H442.037V126.727ZM443.927 128.305V132.648H445.544C447.068 132.648 447.873 131.906 447.873 130.477C447.873 129.047 447.068 128.305 445.544 128.305H443.927ZM455.15 134.188V136.641H457.697V138H451.736V136.641H453.4V130.805H451.572V129.445H455.158V131.633H455.423C455.775 129.984 456.728 129.219 458.353 129.219C458.837 129.219 459.283 129.281 459.579 129.398V131.375C459.197 131.227 458.634 131.133 458.165 131.133C456.189 131.133 455.15 132.211 455.15 134.188ZM465.099 138.172C462.739 138.172 461.247 136.703 461.247 134.375V133.07C461.247 130.742 462.739 129.273 465.099 129.273C467.458 129.273 468.95 130.742 468.95 133.07V134.375C468.95 136.703 467.458 138.172 465.099 138.172ZM465.099 130.781C463.833 130.781 463.044 131.695 463.044 133.172V134.273C463.044 135.75 463.833 136.664 465.099 136.664C466.364 136.664 467.153 135.75 467.153 134.273V133.172C467.153 131.695 466.364 130.781 465.099 130.781ZM473.165 127.055H474.946V129.5H478.251V130.969H474.977V135.367C474.977 136.125 475.516 136.547 476.485 136.547C476.798 136.547 478.032 136.539 478.181 136.523V137.977C478.04 138 476.602 138.023 476.345 138.023C474.095 138.023 473.165 137.258 473.165 135.359V130.969H470.915V129.5H473.165V127.055ZM484.528 138.172C482.169 138.172 480.676 136.703 480.676 134.375V133.07C480.676 130.742 482.169 129.273 484.528 129.273C486.887 129.273 488.379 130.742 488.379 133.07V134.375C488.379 136.703 486.887 138.172 484.528 138.172ZM484.528 130.781C483.262 130.781 482.473 131.695 482.473 133.172V134.273C482.473 135.75 483.262 136.664 484.528 136.664C485.794 136.664 486.583 135.75 486.583 134.273V133.172C486.583 131.695 485.794 130.781 484.528 130.781ZM497.993 132.297H496.211C496.063 131.32 495.383 130.781 494.391 130.781C493.11 130.781 492.407 131.703 492.407 133.383V134.039C492.407 135.719 493.11 136.641 494.391 136.641C495.391 136.641 496.055 136.125 496.211 135.18H497.993C497.797 137.094 496.493 138.172 494.407 138.172C491.961 138.172 490.578 136.75 490.578 134.203V133.219C490.578 130.68 491.961 129.25 494.407 129.25C496.5 129.25 497.789 130.336 497.993 132.297ZM503.957 138.172C501.598 138.172 500.106 136.703 500.106 134.375V133.07C500.106 130.742 501.598 129.273 503.957 129.273C506.317 129.273 507.809 130.742 507.809 133.07V134.375C507.809 136.703 506.317 138.172 503.957 138.172ZM503.957 130.781C502.692 130.781 501.902 131.695 501.902 133.172V134.273C501.902 135.75 502.692 136.664 503.957 136.664C505.223 136.664 506.012 135.75 506.012 134.273V133.172C506.012 131.695 505.223 130.781 503.957 130.781ZM517.437 138H510.156V136.547H512.961V127.594H510.25V126.141H514.773V136.547H517.437V138ZM519.863 130.328V128.289L526.918 132.195V133.781L519.863 137.688V135.648L524.996 133.062V132.914L519.863 130.328Z" fill="black"/>
<path d="M101.414 185.785H99.6091V174.512H101.414V179.84H101.531L105.718 174.512H107.773L103.773 179.488L108.086 185.785H105.843L102.484 180.863L101.414 182.184V185.785ZM112.988 175.332C112.214 175.332 111.667 174.824 111.667 174.09C111.667 173.355 112.214 172.848 112.988 172.848C113.769 172.848 114.316 173.355 114.316 174.09C114.316 174.824 113.769 175.332 112.988 175.332ZM116.621 185.785H109.339V184.332H112.16V178.684H109.433V177.23H113.933V184.332H116.621V185.785ZM118.874 185.785V177.23H120.632V178.691H120.757C121.195 177.645 122.14 177.059 123.398 177.059C125.257 177.059 126.265 178.168 126.265 180.238V185.785H124.445V180.684C124.445 179.309 123.882 178.652 122.71 178.652C121.491 178.652 120.695 179.504 120.695 180.801V185.785H118.874ZM134.315 183.465H136.042C135.839 184.934 134.386 185.957 132.472 185.957C130.034 185.957 128.628 184.559 128.628 182.121V180.785C128.628 178.543 130.136 177.059 132.409 177.059C134.659 177.059 136.058 178.535 136.058 180.91V181.949H130.417V182.363C130.417 183.668 131.222 184.512 132.464 184.512C133.409 184.512 134.136 184.098 134.315 183.465ZM132.378 178.496C131.151 178.496 130.417 179.332 130.417 180.73H134.292C134.292 179.34 133.573 178.496 132.378 178.496ZM140.35 174.84H142.132V177.285H145.436V178.754H142.163V183.152C142.163 183.91 142.702 184.332 143.671 184.332C143.983 184.332 145.218 184.324 145.366 184.309V185.762C145.225 185.785 143.788 185.809 143.53 185.809C141.28 185.809 140.35 185.043 140.35 183.145V178.754H138.1V177.285H140.35V174.84ZM151.846 175.332C151.073 175.332 150.526 174.824 150.526 174.09C150.526 173.355 151.073 172.848 151.846 172.848C152.628 172.848 153.174 173.355 153.174 174.09C153.174 174.824 152.628 175.332 151.846 175.332ZM155.479 185.785H148.198V184.332H151.018V178.684H148.292V177.23H152.792V184.332H155.479V185.785ZM165.178 180.082H163.397C163.248 179.105 162.569 178.566 161.577 178.566C160.295 178.566 159.592 179.488 159.592 181.168V181.824C159.592 183.504 160.295 184.426 161.577 184.426C162.577 184.426 163.241 183.91 163.397 182.965H165.178C164.983 184.879 163.678 185.957 161.592 185.957C159.147 185.957 157.764 184.535 157.764 181.988V181.004C157.764 178.465 159.147 177.035 161.592 177.035C163.686 177.035 164.975 178.121 165.178 180.082ZM167.815 179.652C167.815 178.059 169.127 177.043 171.15 177.043C173.111 177.043 174.354 177.949 174.471 179.488H172.752C172.627 178.848 172.01 178.449 171.127 178.449C170.213 178.449 169.611 178.871 169.611 179.512C169.611 180.059 170.002 180.371 170.932 180.574L172.205 180.848C173.916 181.215 174.674 181.941 174.674 183.223C174.674 184.887 173.307 185.957 171.158 185.957C169.065 185.957 167.736 185.027 167.611 183.48H169.416C169.572 184.152 170.221 184.535 171.19 184.535C172.182 184.535 172.807 184.098 172.807 183.434C172.807 182.871 172.447 182.582 171.471 182.371L170.19 182.09C168.611 181.738 167.815 180.926 167.815 179.652ZM184.389 178.113L179.256 180.699V180.848L184.389 183.434V185.473L177.334 181.566V179.98L184.389 176.074V178.113ZM190.666 183.809L193.244 174.512H195.134L191.658 185.785H189.486L186.009 174.512H188.025L190.588 183.809H190.666ZM202.318 183.465H204.044C203.841 184.934 202.388 185.957 200.474 185.957C198.037 185.957 196.63 184.559 196.63 182.121V180.785C196.63 178.543 198.138 177.059 200.412 177.059C202.662 177.059 204.06 178.535 204.06 180.91V181.949H198.419V182.363C198.419 183.668 199.224 184.512 200.466 184.512C201.412 184.512 202.138 184.098 202.318 183.465ZM200.38 178.496C199.154 178.496 198.419 179.332 198.419 180.73H202.294C202.294 179.34 201.576 178.496 200.38 178.496ZM213.751 180.082H211.97C211.822 179.105 211.142 178.566 210.15 178.566C208.868 178.566 208.165 179.488 208.165 181.168V181.824C208.165 183.504 208.868 184.426 210.15 184.426C211.15 184.426 211.814 183.91 211.97 182.965H213.751C213.556 184.879 212.251 185.957 210.165 185.957C207.72 185.957 206.337 184.535 206.337 181.988V181.004C206.337 178.465 207.72 177.035 210.165 177.035C212.259 177.035 213.548 178.121 213.751 180.082ZM218.067 174.84H219.849V177.285H223.153V178.754H219.88V183.152C219.88 183.91 220.419 184.332 221.388 184.332C221.7 184.332 222.935 184.324 223.083 184.309V185.762C222.942 185.785 221.505 185.809 221.247 185.809C218.997 185.809 218.067 185.043 218.067 183.145V178.754H215.817V177.285H218.067V174.84ZM229.43 185.957C227.071 185.957 225.579 184.488 225.579 182.16V180.855C225.579 178.527 227.071 177.059 229.43 177.059C231.79 177.059 233.282 178.527 233.282 180.855V182.16C233.282 184.488 231.79 185.957 229.43 185.957ZM229.43 178.566C228.165 178.566 227.376 179.48 227.376 180.957V182.059C227.376 183.535 228.165 184.449 229.43 184.449C230.696 184.449 231.485 183.535 231.485 182.059V180.957C231.485 179.48 230.696 178.566 229.43 178.566ZM238.911 181.973V184.426H241.458V185.785H235.497V184.426H237.161V178.59H235.333V177.23H238.918V179.418H239.184C239.536 177.77 240.489 177.004 242.114 177.004C242.598 177.004 243.043 177.066 243.34 177.184V179.16C242.958 179.012 242.395 178.918 241.926 178.918C239.95 178.918 238.911 179.996 238.911 181.973ZM245.336 178.113V176.074L252.391 179.98V181.566L245.336 185.473V183.434L250.469 180.848V180.699L245.336 178.113Z" fill="white"/>
<path d="M413.604 209.785H411.713V198.512H418.643V200.16H413.604V203.551H418.198V205.129H413.604V209.785ZM424.568 209.957C422.209 209.957 420.717 208.488 420.717 206.16V204.855C420.717 202.527 422.209 201.059 424.568 201.059C426.928 201.059 428.42 202.527 428.42 204.855V206.16C428.42 208.488 426.928 209.957 424.568 209.957ZM424.568 202.566C423.303 202.566 422.514 203.48 422.514 204.957V206.059C422.514 207.535 423.303 208.449 424.568 208.449C425.834 208.449 426.623 207.535 426.623 206.059V204.957C426.623 203.48 425.834 202.566 424.568 202.566ZM434.049 205.973V208.426H436.596V209.785H430.635V208.426H432.299V202.59H430.471V201.23H434.056V203.418H434.322C434.674 201.77 435.627 201.004 437.252 201.004C437.736 201.004 438.181 201.066 438.478 201.184V203.16C438.096 203.012 437.533 202.918 437.064 202.918C435.088 202.918 434.049 203.996 434.049 205.973ZM447.748 204.082H445.966C445.818 203.105 445.138 202.566 444.146 202.566C442.865 202.566 442.162 203.488 442.162 205.168V205.824C442.162 207.504 442.865 208.426 444.146 208.426C445.146 208.426 445.81 207.91 445.966 206.965H447.748C447.552 208.879 446.248 209.957 444.162 209.957C441.716 209.957 440.334 208.535 440.334 205.988V205.004C440.334 202.465 441.716 201.035 444.162 201.035C446.255 201.035 447.545 202.121 447.748 204.082ZM455.743 207.465H457.47C457.267 208.934 455.814 209.957 453.9 209.957C451.462 209.957 450.056 208.559 450.056 206.121V204.785C450.056 202.543 451.564 201.059 453.837 201.059C456.087 201.059 457.486 202.535 457.486 204.91V205.949H451.845V206.363C451.845 207.668 452.65 208.512 453.892 208.512C454.837 208.512 455.564 208.098 455.743 207.465ZM453.806 202.496C452.579 202.496 451.845 203.332 451.845 204.73H455.72C455.72 203.34 455.001 202.496 453.806 202.496ZM459.794 198.512H463.771C466.068 198.512 467.544 199.98 467.544 202.27C467.544 204.543 466.036 206.012 463.693 206.012H461.685V209.785H459.794V198.512ZM461.685 200.09V204.434H463.302C464.825 204.434 465.63 203.691 465.63 202.262C465.63 200.832 464.825 200.09 463.302 200.09H461.685ZM472.907 205.973V208.426H475.454V209.785H469.493V208.426H471.157V202.59H469.329V201.23H472.915V203.418H473.181C473.532 201.77 474.485 201.004 476.11 201.004C476.595 201.004 477.04 201.066 477.337 201.184V203.16C476.954 203.012 476.392 202.918 475.923 202.918C473.946 202.918 472.907 203.996 472.907 205.973ZM482.856 209.957C480.497 209.957 479.005 208.488 479.005 206.16V204.855C479.005 202.527 480.497 201.059 482.856 201.059C485.215 201.059 486.708 202.527 486.708 204.855V206.16C486.708 208.488 485.215 209.957 482.856 209.957ZM482.856 202.566C481.59 202.566 480.801 203.48 480.801 204.957V206.059C480.801 207.535 481.59 208.449 482.856 208.449C484.122 208.449 484.911 207.535 484.911 206.059V204.957C484.911 203.48 484.122 202.566 482.856 202.566ZM490.922 198.84H492.704V201.285H496.008V202.754H492.735V207.152C492.735 207.91 493.274 208.332 494.243 208.332C494.555 208.332 495.79 208.324 495.938 208.309V209.762C495.797 209.785 494.36 209.809 494.102 209.809C491.852 209.809 490.922 209.043 490.922 207.145V202.754H488.672V201.285H490.922V198.84ZM502.285 209.957C499.926 209.957 498.434 208.488 498.434 206.16V204.855C498.434 202.527 499.926 201.059 502.285 201.059C504.645 201.059 506.137 202.527 506.137 204.855V206.16C506.137 208.488 504.645 209.957 502.285 209.957ZM502.285 202.566C501.02 202.566 500.231 203.48 500.231 204.957V206.059C500.231 207.535 501.02 208.449 502.285 208.449C503.551 208.449 504.34 207.535 504.34 206.059V204.957C504.34 203.48 503.551 202.566 502.285 202.566ZM515.75 204.082H513.969C513.82 203.105 513.141 202.566 512.148 202.566C510.867 202.566 510.164 203.488 510.164 205.168V205.824C510.164 207.504 510.867 208.426 512.148 208.426C513.148 208.426 513.812 207.91 513.969 206.965H515.75C515.555 208.879 514.25 209.957 512.164 209.957C509.719 209.957 508.336 208.535 508.336 205.988V205.004C508.336 202.465 509.719 201.035 512.164 201.035C514.258 201.035 515.547 202.121 515.75 204.082ZM521.715 209.957C519.355 209.957 517.863 208.488 517.863 206.16V204.855C517.863 202.527 519.355 201.059 521.715 201.059C524.074 201.059 525.566 202.527 525.566 204.855V206.16C525.566 208.488 524.074 209.957 521.715 209.957ZM521.715 202.566C520.449 202.566 519.66 203.48 519.66 204.957V206.059C519.66 207.535 520.449 208.449 521.715 208.449C522.98 208.449 523.769 207.535 523.769 206.059V204.957C523.769 203.48 522.98 202.566 521.715 202.566ZM535.195 209.785H527.914V208.332H530.718V199.379H528.007V197.926H532.531V208.332H535.195V209.785ZM544.675 202.113L539.542 204.699V204.848L544.675 207.434V209.473L537.62 205.566V203.98L544.675 200.074V202.113ZM550.952 207.809L553.53 198.512H555.421L551.944 209.785H549.773L546.296 198.512H548.312L550.874 207.809H550.952ZM562.604 207.465H564.331C564.128 208.934 562.675 209.957 560.761 209.957C558.323 209.957 556.917 208.559 556.917 206.121V204.785C556.917 202.543 558.425 201.059 560.698 201.059C562.948 201.059 564.347 202.535 564.347 204.91V205.949H558.706V206.363C558.706 207.668 559.511 208.512 560.753 208.512C561.698 208.512 562.425 208.098 562.604 207.465ZM560.667 202.496C559.44 202.496 558.706 203.332 558.706 204.73H562.581C562.581 203.34 561.862 202.496 560.667 202.496ZM574.038 204.082H572.257C572.108 203.105 571.428 202.566 570.436 202.566C569.155 202.566 568.452 203.488 568.452 205.168V205.824C568.452 207.504 569.155 208.426 570.436 208.426C571.436 208.426 572.1 207.91 572.257 206.965H574.038C573.842 208.879 572.538 209.957 570.452 209.957C568.007 209.957 566.624 208.535 566.624 205.988V205.004C566.624 202.465 568.007 201.035 570.452 201.035C572.546 201.035 573.835 202.121 574.038 204.082ZM578.354 198.84H580.135V201.285H583.44V202.754H580.166V207.152C580.166 207.91 580.706 208.332 581.674 208.332C581.987 208.332 583.221 208.324 583.37 208.309V209.762C583.229 209.785 581.791 209.809 581.534 209.809C579.284 209.809 578.354 209.043 578.354 207.145V202.754H576.104V201.285H578.354V198.84ZM589.717 209.957C587.358 209.957 585.865 208.488 585.865 206.16V204.855C585.865 202.527 587.358 201.059 589.717 201.059C592.076 201.059 593.569 202.527 593.569 204.855V206.16C593.569 208.488 592.076 209.957 589.717 209.957ZM589.717 202.566C588.451 202.566 587.662 203.48 587.662 204.957V206.059C587.662 207.535 588.451 208.449 589.717 208.449C590.983 208.449 591.772 207.535 591.772 206.059V204.957C591.772 203.48 590.983 202.566 589.717 202.566ZM599.197 205.973V208.426H601.744V209.785H595.783V208.426H597.447V202.59H595.619V201.23H599.205V203.418H599.471C599.822 201.77 600.775 201.004 602.4 201.004C602.885 201.004 603.33 201.066 603.627 201.184V203.16C603.244 203.012 602.682 202.918 602.213 202.918C600.236 202.918 599.197 203.996 599.197 205.973ZM605.623 202.113V200.074L612.677 203.98V205.566L605.623 209.473V207.434L610.756 204.848V204.699L605.623 202.113Z" fill="white"/>
<rect x="32" y="204" width="136" height="32" rx="3" fill="#9747FF"/>
<path d="M62.4832 214.727H66.3426C68.5848 214.727 70.0457 216.172 70.0457 218.406C70.0457 220.633 68.5613 222.078 66.2957 222.078H64.116V226H62.4832V214.727ZM64.116 216.117V220.695H65.9441C67.5301 220.695 68.3894 219.891 68.3894 218.406C68.3894 216.914 67.5301 216.117 65.9441 216.117H64.116ZM75.7134 226.164C73.4166 226.164 71.9556 224.695 71.9556 222.391V221.102C71.9556 218.789 73.4166 217.328 75.7134 217.328C78.0103 217.328 79.4713 218.789 79.4713 221.102V222.391C79.4713 224.695 78.0103 226.164 75.7134 226.164ZM75.7134 218.656C74.3541 218.656 73.5025 219.633 73.5025 221.211V222.281C73.5025 223.859 74.3541 224.836 75.7134 224.836C77.0728 224.836 77.9244 223.859 77.9244 222.281V221.211C77.9244 219.633 77.0728 218.656 75.7134 218.656ZM82.2249 219.836C82.2249 218.312 83.4984 217.312 85.4515 217.312C87.3109 217.312 88.5296 218.203 88.6702 219.68H87.1702C87.0296 218.984 86.3656 218.555 85.4281 218.555C84.4281 218.555 83.7796 219.023 83.7796 219.727C83.7796 220.336 84.1937 220.672 85.1859 220.891L86.4202 221.164C88.0999 221.539 88.8577 222.258 88.8577 223.508C88.8577 225.125 87.5218 226.156 85.4437 226.156C83.4359 226.156 82.139 225.258 81.9984 223.758H83.5765C83.7484 224.484 84.4515 224.898 85.4827 224.898C86.5531 224.898 87.2406 224.422 87.2406 223.68C87.2406 223.055 86.8577 222.734 85.8265 222.5L84.5531 222.211C82.9984 221.859 82.2249 221.078 82.2249 219.836ZM95.2833 215.492C94.588 215.492 94.0724 215.008 94.0724 214.336C94.0724 213.656 94.588 213.172 95.2833 213.172C95.9864 213.172 96.4943 213.656 96.4943 214.336C96.4943 215.008 95.9864 215.492 95.2833 215.492ZM98.8771 226H91.7286V224.734H94.5958V218.75H91.7911V217.484H96.1271V224.734H98.8771V226ZM103.31 215.156H104.857V217.531H108.225V218.82H104.881V223.422C104.881 224.266 105.467 224.727 106.553 224.727C106.951 224.727 107.99 224.711 108.178 224.688V225.969C108.006 226 106.771 226.031 106.443 226.031C104.264 226.031 103.31 225.25 103.31 223.422V218.82H101.06V217.531H103.31V215.156ZM114.713 215.492C114.017 215.492 113.502 215.008 113.502 214.336C113.502 213.656 114.017 213.172 114.713 213.172C115.416 213.172 115.924 213.656 115.924 214.336C115.924 215.008 115.416 215.492 114.713 215.492ZM118.306 226H111.158V224.734H114.025V218.75H111.22V217.484H115.556V224.734H118.306V226ZM124.287 226.164C121.99 226.164 120.529 224.695 120.529 222.391V221.102C120.529 218.789 121.99 217.328 124.287 217.328C126.583 217.328 128.044 218.789 128.044 221.102V222.391C128.044 224.695 126.583 226.164 124.287 226.164ZM124.287 218.656C122.927 218.656 122.076 219.633 122.076 221.211V222.281C122.076 223.859 122.927 224.836 124.287 224.836C125.646 224.836 126.497 223.859 126.497 222.281V221.211C126.497 219.633 125.646 218.656 124.287 218.656ZM130.423 226V217.484H131.939V218.969H132.048C132.493 217.914 133.454 217.32 134.728 217.32C136.579 217.32 137.579 218.43 137.579 220.477V226H136.009V220.867C136.009 219.406 135.423 218.719 134.165 218.719C132.861 218.719 131.986 219.633 131.986 221.008V226H130.423Z" fill="white"/>
<rect x="183" y="204" width="136" height="32" rx="3" fill="#9747FF"/>
<path d="M217.061 224.195L219.827 214.727H221.46L217.905 226H216.093L212.538 214.727H214.257L217.007 224.195H217.061ZM228.878 223.75H230.378C230.151 225.18 228.745 226.164 226.909 226.164C224.518 226.164 223.151 224.758 223.151 222.336V221.039C223.151 218.797 224.612 217.32 226.823 217.32C229.049 217.32 230.401 218.789 230.401 221.211V222.133H224.69V222.516C224.69 223.953 225.557 224.875 226.901 224.875C227.909 224.875 228.667 224.445 228.878 223.75ZM226.807 218.602C225.487 218.602 224.69 219.508 224.69 221.031H228.862C228.862 219.516 228.096 218.602 226.807 218.602ZM240.162 226H233.014V224.734H235.866V215.438H233.076V214.164H237.428V224.734H240.162V226ZM246.143 226.164C243.846 226.164 242.385 224.695 242.385 222.391V221.102C242.385 218.789 243.846 217.328 246.143 217.328C248.44 217.328 249.901 218.789 249.901 221.102V222.391C249.901 224.695 248.44 226.164 246.143 226.164ZM246.143 218.656C244.783 218.656 243.932 219.633 243.932 221.211V222.281C243.932 223.859 244.783 224.836 246.143 224.836C247.502 224.836 248.354 223.859 248.354 222.281V221.211C248.354 219.633 247.502 218.656 246.143 218.656ZM259.498 220.227H257.951C257.803 219.242 257.037 218.656 255.998 218.656C254.615 218.656 253.85 219.625 253.85 221.375V222.094C253.85 223.844 254.615 224.812 255.998 224.812C257.045 224.812 257.795 224.242 257.951 223.281H259.498C259.287 225.094 257.998 226.164 256.014 226.164C253.646 226.164 252.279 224.742 252.279 222.258V221.211C252.279 218.727 253.646 217.312 256.014 217.312C257.998 217.312 259.287 218.383 259.498 220.227ZM265.713 215.492C265.017 215.492 264.502 215.008 264.502 214.336C264.502 213.656 265.017 213.172 265.713 213.172C266.416 213.172 266.924 213.656 266.924 214.336C266.924 215.008 266.416 215.492 265.713 215.492ZM269.306 226H262.158V224.734H265.025V218.75H262.22V217.484H266.556V224.734H269.306V226ZM273.74 215.156H275.287V217.531H278.654V218.82H275.31V223.422C275.31 224.266 275.896 224.727 276.982 224.727C277.38 224.727 278.419 224.711 278.607 224.688V225.969C278.435 226 277.201 226.031 276.872 226.031C274.693 226.031 273.74 225.25 273.74 223.422V218.82H271.49V217.531H273.74V215.156ZM282.572 229.047C282.329 229.047 282.032 229.031 281.931 229.023V227.703C282.017 227.719 282.275 227.727 282.4 227.727C283.22 227.727 283.665 227.383 283.978 226.484L284.111 226.062L281.009 217.484H282.728L284.97 224.453H285.079L287.306 217.484H288.97L285.845 226.258C285.103 228.375 284.306 229.047 282.572 229.047Z" fill="white"/>
<path d="M4.66119 18V8.23438H1.11432V6.72656H9.95026V8.23438H6.41119V18H4.66119ZM11.8055 18V6.1875H13.5008V10.8047H13.6258C14.0399 9.89844 14.8524 9.35156 16.0868 9.35156C17.9852 9.35156 19.0321 10.4844 19.0321 12.5078V18H17.3446V12.9062C17.3446 11.5 16.7586 10.8047 15.5164 10.8047C14.2743 10.8047 13.5008 11.6562 13.5008 13.0234V18H11.8055ZM24.7858 18.1641C22.3014 18.1641 20.8014 16.4688 20.8014 13.7812V13.7734C20.8014 11.125 22.3326 9.35156 24.6998 9.35156C27.067 9.35156 28.5201 11.0625 28.5201 13.6094V14.2031H22.5045C22.5358 15.8281 23.4264 16.7734 24.8248 16.7734C25.9108 16.7734 26.5592 16.2344 26.7623 15.7969L26.7936 15.7344L28.4264 15.7266L28.4108 15.7969C28.1295 16.9141 26.9576 18.1641 24.7858 18.1641ZM24.7076 10.7422C23.5514 10.7422 22.6764 11.5312 22.5279 12.9922H26.8404C26.7076 11.4766 25.8561 10.7422 24.7076 10.7422ZM37.7619 18.0547C35.8947 18.0547 35.1291 17.3984 35.1291 15.7656V10.8516H33.8009V9.51562H35.1291V7.375H36.8556V9.51562H38.6759V10.8516H36.8556V15.3594C36.8556 16.2734 37.1994 16.6484 38.0353 16.6484C38.2931 16.6484 38.4416 16.6406 38.6759 16.6172V17.9688C38.4025 18.0156 38.09 18.0547 37.7619 18.0547ZM41.3046 20.9844C41.0937 20.9844 40.8437 20.9688 40.6249 20.9453V19.6094C40.789 19.6328 40.9999 19.6406 41.1953 19.6406C41.9843 19.6406 42.4531 19.3047 42.7109 18.4453L42.8359 18.0078L39.7578 9.51562H41.5859L43.7109 16.2969H43.8593L45.9765 9.51562H47.7578L44.6015 18.3281C43.8828 20.3594 43.0234 20.9844 41.3046 20.9844ZM49.3005 20.8281V9.51562H50.9958V10.8516H51.1208C51.613 9.92188 52.5427 9.36719 53.7302 9.36719C55.8708 9.36719 57.2458 11.0781 57.2458 13.75V13.7656C57.2458 16.4531 55.8864 18.1406 53.7302 18.1406C52.5661 18.1406 51.5739 17.5703 51.1208 16.6562H50.9958V20.8281H49.3005ZM53.2536 16.6953C54.6677 16.6953 55.5193 15.5859 55.5193 13.7656V13.75C55.5193 11.9219 54.6677 10.8203 53.2536 10.8203C51.8396 10.8203 50.9646 11.9375 50.9646 13.75V13.7656C50.9646 15.5781 51.8396 16.6953 53.2536 16.6953ZM62.6714 18.1641C60.187 18.1641 58.687 16.4688 58.687 13.7812V13.7734C58.687 11.125 60.2183 9.35156 62.5854 9.35156C64.9526 9.35156 66.4058 11.0625 66.4058 13.6094V14.2031H60.3901C60.4214 15.8281 61.312 16.7734 62.7104 16.7734C63.7964 16.7734 64.4448 16.2344 64.6479 15.7969L64.6792 15.7344L66.312 15.7266L66.2964 15.7969C66.0151 16.9141 64.8433 18.1641 62.6714 18.1641ZM62.5933 10.7422C61.437 10.7422 60.562 11.5312 60.4136 12.9922H64.7261C64.5933 11.4766 63.7417 10.7422 62.5933 10.7422ZM73.0459 18V10.8516H71.6475V9.51562H73.0459V8.625C73.0459 6.9375 73.8975 6.10938 75.6709 6.10938C76.0459 6.10938 76.3741 6.13281 76.6709 6.1875V7.42969C76.5147 7.40625 76.2881 7.39062 76.0225 7.39062C75.085 7.39062 74.7178 7.84375 74.7178 8.70312V9.51562H76.6006V10.8516H74.7334V18H73.0459ZM81.5965 18.1641C79.1043 18.1641 77.5809 16.5 77.5809 13.7656V13.75C77.5809 11.0234 79.1121 9.35156 81.5965 9.35156C84.0731 9.35156 85.6043 11.0156 85.6043 13.75V13.7656C85.6043 16.5 84.0809 18.1641 81.5965 18.1641ZM81.5965 16.75C83.0496 16.75 83.8778 15.6406 83.8778 13.7656V13.75C83.8778 11.8672 83.0496 10.7656 81.5965 10.7656C80.1356 10.7656 79.3153 11.8672 79.3153 13.75V13.7656C79.3153 15.6484 80.1356 16.75 81.5965 16.75ZM87.4518 18V9.51562H89.1471V10.7969H89.2721C89.5768 9.89844 90.3658 9.36719 91.4986 9.36719C91.7721 9.36719 92.0689 9.40625 92.2408 9.44531V11.0078C91.9361 10.9453 91.6471 10.9062 91.3268 10.9062C90.0299 10.9062 89.1471 11.7031 89.1471 12.9297V18H87.4518ZM100.975 18.1406C98.8419 18.1406 97.4591 16.4297 97.4591 13.7656V13.75C97.4591 11.0625 98.8185 9.36719 100.975 9.36719C102.139 9.36719 103.131 9.94531 103.584 10.8594H103.717V6.1875H105.404V18H103.717V16.6641H103.584C103.092 17.5938 102.162 18.1406 100.975 18.1406ZM101.459 16.6953C102.873 16.6953 103.74 15.5781 103.74 13.7656V13.75C103.74 11.9375 102.865 10.8203 101.459 10.8203C100.037 10.8203 99.1857 11.9297 99.1857 13.75V13.7656C99.1857 15.5859 100.037 16.6953 101.459 16.6953ZM111.314 18.1641C108.83 18.1641 107.33 16.4688 107.33 13.7812V13.7734C107.33 11.125 108.861 9.35156 111.228 9.35156C113.596 9.35156 115.049 11.0625 115.049 13.6094V14.2031H109.033C109.064 15.8281 109.955 16.7734 111.353 16.7734C112.439 16.7734 113.088 16.2344 113.291 15.7969L113.322 15.7344L114.955 15.7266L114.939 15.7969C114.658 16.9141 113.486 18.1641 111.314 18.1641ZM111.236 10.7422C110.08 10.7422 109.205 11.5312 109.057 12.9922H113.369C113.236 11.4766 112.385 10.7422 111.236 10.7422ZM119.974 18.1641C117.927 18.1641 116.631 17.2031 116.467 15.7812V15.7734H118.162L118.17 15.7812C118.381 16.4219 118.998 16.8516 120.006 16.8516C121.052 16.8516 121.779 16.375 121.779 15.6797V15.6641C121.779 15.1328 121.381 14.7734 120.396 14.5469L119.045 14.2344C117.443 13.8672 116.701 13.1406 116.701 11.8984V11.8906C116.701 10.4141 118.076 9.35156 119.998 9.35156C121.935 9.35156 123.177 10.3203 123.326 11.7031V11.7109H121.709V11.6953C121.545 11.1016 120.943 10.6562 119.99 10.6562C119.06 10.6562 118.388 11.1172 118.388 11.7969V11.8125C118.388 12.3438 118.779 12.6719 119.732 12.8984L121.076 13.2031C122.709 13.5859 123.49 14.2812 123.49 15.5078V15.5234C123.49 17.0938 121.99 18.1641 119.974 18.1641ZM128.908 18.1641C126.431 18.1641 124.916 16.4766 124.916 13.7344V13.7188C124.916 11.0312 126.423 9.35156 128.9 9.35156C131.033 9.35156 132.306 10.5547 132.541 12.2031V12.2422L130.916 12.25L130.908 12.2266C130.72 11.3906 130.033 10.7656 128.908 10.7656C127.494 10.7656 126.642 11.8906 126.642 13.7188V13.7344C126.642 15.6094 127.509 16.75 128.908 16.75C129.97 16.75 130.626 16.2656 130.9 15.3516L130.916 15.3125H132.541L132.525 15.3828C132.22 17.0312 131.009 18.1641 128.908 18.1641ZM134.286 18V9.51562H135.982V10.7969H136.107C136.411 9.89844 137.2 9.36719 138.333 9.36719C138.607 9.36719 138.904 9.40625 139.075 9.44531V11.0078C138.771 10.9453 138.482 10.9062 138.161 10.9062C136.865 10.9062 135.982 11.7031 135.982 12.9297V18H134.286ZM141.399 8C140.814 8 140.337 7.52344 140.337 6.94531C140.337 6.35938 140.814 5.88281 141.399 5.88281C141.978 5.88281 142.462 6.35938 142.462 6.94531C142.462 7.52344 141.978 8 141.399 8ZM140.548 18V9.51562H142.235V18H140.548ZM149.036 18.1406C147.848 18.1406 146.919 17.5938 146.427 16.6641H146.302V18H144.606V6.1875H146.302V10.8594H146.427C146.88 9.94531 147.872 9.36719 149.036 9.36719C151.192 9.36719 152.552 11.0625 152.552 13.75V13.7656C152.552 16.4297 151.177 18.1406 149.036 18.1406ZM148.559 16.6953C149.973 16.6953 150.825 15.5859 150.825 13.7656V13.75C150.825 11.9297 149.973 10.8203 148.559 10.8203C147.145 10.8203 146.27 11.9375 146.27 13.75V13.7656C146.27 15.5781 147.145 16.6953 148.559 16.6953ZM155.282 8C154.696 8 154.219 7.52344 154.219 6.94531C154.219 6.35938 154.696 5.88281 155.282 5.88281C155.86 5.88281 156.344 6.35938 156.344 6.94531C156.344 7.52344 155.86 8 155.282 8ZM154.43 18V9.51562H156.118V18H154.43ZM158.411 18V9.51562H160.106V10.8047H160.231C160.645 9.89844 161.457 9.35156 162.692 9.35156C164.59 9.35156 165.637 10.4844 165.637 12.5078V18H163.95V12.9062C163.95 11.5 163.364 10.8047 162.121 10.8047C160.879 10.8047 160.106 11.6562 160.106 13.0234V18H158.411ZM171.414 20.9922C169.258 20.9922 167.93 20.0469 167.727 18.6328L167.742 18.6172H169.453L169.461 18.6328C169.602 19.2188 170.289 19.6328 171.438 19.6328C172.836 19.6328 173.664 18.9766 173.664 17.8203V16.1484H173.539C173.024 17.0703 172.086 17.5859 170.922 17.5859C168.742 17.5859 167.399 15.9062 167.399 13.5156V13.5C167.399 11.0781 168.75 9.36719 170.953 9.36719C172.141 9.36719 173.063 9.95312 173.555 10.9062H173.656V9.51562H175.344V17.8281C175.344 19.7578 173.82 20.9922 171.414 20.9922ZM171.391 16.1875C172.828 16.1875 173.695 15.0938 173.695 13.5078V13.4922C173.695 11.9141 172.82 10.8047 171.391 10.8047C169.945 10.8047 169.133 11.9141 169.133 13.4922V13.5078C169.133 15.0859 169.945 16.1875 171.391 16.1875ZM184.133 18.1406C182.515 18.1406 181.32 17.1562 181.32 15.6172V15.6016C181.32 14.0859 182.461 13.2031 184.484 13.0781L186.781 12.9453V12.1953C186.781 11.2656 186.195 10.75 185.047 10.75C184.109 10.75 183.492 11.0938 183.289 11.6953L183.281 11.7266H181.648L181.656 11.6719C181.859 10.2812 183.195 9.35156 185.125 9.35156C187.258 9.35156 188.461 10.4141 188.461 12.1953V18H186.781V16.7969H186.648C186.148 17.6562 185.258 18.1406 184.133 18.1406ZM183.008 15.5469C183.008 16.3281 183.672 16.7891 184.586 16.7891C185.851 16.7891 186.781 15.9609 186.781 14.8672V14.1406L184.711 14.2734C183.539 14.3438 183.008 14.7656 183.008 15.5312V15.5469ZM197.96 18.1641C195.913 18.1641 194.616 17.2031 194.452 15.7812V15.7734H196.148L196.156 15.7812C196.366 16.4219 196.984 16.8516 197.991 16.8516C199.038 16.8516 199.765 16.375 199.765 15.6797V15.6641C199.765 15.1328 199.366 14.7734 198.382 14.5469L197.031 14.2344C195.429 13.8672 194.687 13.1406 194.687 11.8984V11.8906C194.687 10.4141 196.062 9.35156 197.984 9.35156C199.921 9.35156 201.163 10.3203 201.312 11.7031V11.7109H199.695V11.6953C199.531 11.1016 198.929 10.6562 197.976 10.6562C197.046 10.6562 196.374 11.1172 196.374 11.7969V11.8125C196.374 12.3438 196.765 12.6719 197.718 12.8984L199.062 13.2031C200.695 13.5859 201.476 14.2812 201.476 15.5078V15.5234C201.476 17.0938 199.976 18.1641 197.96 18.1641ZM203.323 20.8281V9.51562H205.019V10.8516H205.144C205.636 9.92188 206.565 9.36719 207.753 9.36719C209.894 9.36719 211.269 11.0781 211.269 13.75V13.7656C211.269 16.4531 209.909 18.1406 207.753 18.1406C206.589 18.1406 205.597 17.5703 205.144 16.6562H205.019V20.8281H203.323ZM207.276 16.6953C208.69 16.6953 209.542 15.5859 209.542 13.7656V13.75C209.542 11.9219 208.69 10.8203 207.276 10.8203C205.862 10.8203 204.987 11.9375 204.987 13.75V13.7656C204.987 15.5781 205.862 16.6953 207.276 16.6953ZM215.46 18.1406C213.843 18.1406 212.647 17.1562 212.647 15.6172V15.6016C212.647 14.0859 213.788 13.2031 215.811 13.0781L218.108 12.9453V12.1953C218.108 11.2656 217.522 10.75 216.374 10.75C215.436 10.75 214.819 11.0938 214.616 11.6953L214.608 11.7266H212.975L212.983 11.6719C213.186 10.2812 214.522 9.35156 216.452 9.35156C218.585 9.35156 219.788 10.4141 219.788 12.1953V18H218.108V16.7969H217.975C217.475 17.6562 216.585 18.1406 215.46 18.1406ZM214.335 15.5469C214.335 16.3281 214.999 16.7891 215.913 16.7891C217.179 16.7891 218.108 15.9609 218.108 14.8672V14.1406L216.038 14.2734C214.866 14.3438 214.335 14.7656 214.335 15.5312V15.5469ZM225.206 18.0547C223.338 18.0547 222.573 17.3984 222.573 15.7656V10.8516H221.245V9.51562H222.573V7.375H224.299V9.51562H226.12V10.8516H224.299V15.3594C224.299 16.2734 224.643 16.6484 225.479 16.6484C225.737 16.6484 225.885 16.6406 226.12 16.6172V17.9688C225.846 18.0156 225.534 18.0547 225.206 18.0547ZM228.803 8C228.217 8 227.741 7.52344 227.741 6.94531C227.741 6.35938 228.217 5.88281 228.803 5.88281C229.381 5.88281 229.866 6.35938 229.866 6.94531C229.866 7.52344 229.381 8 228.803 8ZM227.952 18V9.51562H229.639V18H227.952ZM234.26 18.1406C232.643 18.1406 231.447 17.1562 231.447 15.6172V15.6016C231.447 14.0859 232.588 13.2031 234.611 13.0781L236.908 12.9453V12.1953C236.908 11.2656 236.322 10.75 235.174 10.75C234.236 10.75 233.619 11.0938 233.416 11.6953L233.408 11.7266H231.776L231.783 11.6719C231.986 10.2812 233.322 9.35156 235.252 9.35156C237.385 9.35156 238.588 10.4141 238.588 12.1953V18H236.908V16.7969H236.776C236.276 17.6562 235.385 18.1406 234.26 18.1406ZM233.135 15.5469C233.135 16.3281 233.799 16.7891 234.713 16.7891C235.979 16.7891 236.908 15.9609 236.908 14.8672V14.1406L234.838 14.2734C233.666 14.3438 233.135 14.7656 233.135 15.5312V15.5469ZM240.881 18V6.1875H242.576V18H240.881ZM252.693 18.1641C250.216 18.1641 248.701 16.4766 248.701 13.7344V13.7188C248.701 11.0312 250.208 9.35156 252.685 9.35156C254.818 9.35156 256.091 10.5547 256.326 12.2031V12.2422L254.701 12.25L254.693 12.2266C254.505 11.3906 253.818 10.7656 252.693 10.7656C251.279 10.7656 250.427 11.8906 250.427 13.7188V13.7344C250.427 15.6094 251.294 16.75 252.693 16.75C253.755 16.75 254.412 16.2656 254.685 15.3516L254.701 15.3125H256.326L256.31 15.3828C256.005 17.0312 254.794 18.1641 252.693 18.1641ZM261.665 18.1641C259.173 18.1641 257.65 16.5 257.65 13.7656V13.75C257.65 11.0234 259.181 9.35156 261.665 9.35156C264.142 9.35156 265.673 11.0156 265.673 13.75V13.7656C265.673 16.5 264.15 18.1641 261.665 18.1641ZM261.665 16.75C263.118 16.75 263.947 15.6406 263.947 13.7656V13.75C263.947 11.8672 263.118 10.7656 261.665 10.7656C260.204 10.7656 259.384 11.8672 259.384 13.75V13.7656C259.384 15.6484 260.204 16.75 261.665 16.75ZM271.114 18.1641C268.622 18.1641 267.099 16.5 267.099 13.7656V13.75C267.099 11.0234 268.63 9.35156 271.114 9.35156C273.591 9.35156 275.122 11.0156 275.122 13.75V13.7656C275.122 16.5 273.599 18.1641 271.114 18.1641ZM271.114 16.75C272.567 16.75 273.396 15.6406 273.396 13.7656V13.75C273.396 11.8672 272.567 10.7656 271.114 10.7656C269.653 10.7656 268.833 11.8672 268.833 13.75V13.7656C268.833 15.6484 269.653 16.75 271.114 16.75ZM276.97 18V9.51562H278.665V10.7969H278.79C279.095 9.89844 279.884 9.36719 281.016 9.36719C281.29 9.36719 281.587 9.40625 281.759 9.44531V11.0078C281.454 10.9453 281.165 10.9062 280.845 10.9062C279.548 10.9062 278.665 11.7031 278.665 12.9297V18H276.97ZM286.075 18.1406C283.942 18.1406 282.559 16.4297 282.559 13.7656V13.75C282.559 11.0625 283.919 9.36719 286.075 9.36719C287.239 9.36719 288.231 9.94531 288.684 10.8594H288.817V6.1875H290.504V18H288.817V16.6641H288.684C288.192 17.5938 287.262 18.1406 286.075 18.1406ZM286.559 16.6953C287.973 16.6953 288.84 15.5781 288.84 13.7656V13.75C288.84 11.9375 287.965 10.8203 286.559 10.8203C285.137 10.8203 284.286 11.9297 284.286 13.75V13.7656C284.286 15.5859 285.137 16.6953 286.559 16.6953ZM293.735 8C293.149 8 292.672 7.52344 292.672 6.94531C292.672 6.35938 293.149 5.88281 293.735 5.88281C294.313 5.88281 294.797 6.35938 294.797 6.94531C294.797 7.52344 294.313 8 293.735 8ZM292.883 18V9.51562H294.571V18H292.883ZM296.863 18V9.51562H298.559V10.8047H298.684C299.098 9.89844 299.91 9.35156 301.145 9.35156C303.043 9.35156 304.09 10.4844 304.09 12.5078V18H302.402V12.9062C302.402 11.5 301.816 10.8047 300.574 10.8047C299.332 10.8047 298.559 11.6562 298.559 13.0234V18H296.863ZM308.609 18.1406C306.992 18.1406 305.797 17.1562 305.797 15.6172V15.6016C305.797 14.0859 306.937 13.2031 308.961 13.0781L311.258 12.9453V12.1953C311.258 11.2656 310.672 10.75 309.523 10.75C308.586 10.75 307.969 11.0938 307.766 11.6953L307.758 11.7266H306.125L306.133 11.6719C306.336 10.2812 307.672 9.35156 309.601 9.35156C311.734 9.35156 312.937 10.4141 312.937 12.1953V18H311.258V16.7969H311.125C310.625 17.6562 309.734 18.1406 308.609 18.1406ZM307.484 15.5469C307.484 16.3281 308.148 16.7891 309.062 16.7891C310.328 16.7891 311.258 15.9609 311.258 14.8672V14.1406L309.187 14.2734C308.016 14.3438 307.484 14.7656 307.484 15.5312V15.5469ZM318.355 18.0547C316.488 18.0547 315.722 17.3984 315.722 15.7656V10.8516H314.394V9.51562H315.722V7.375H317.449V9.51562H319.269V10.8516H317.449V15.3594C317.449 16.2734 317.793 16.6484 318.629 16.6484C318.886 16.6484 319.035 16.6406 319.269 16.6172V17.9688C318.996 18.0156 318.683 18.0547 318.355 18.0547ZM324.539 18.1641C322.054 18.1641 320.554 16.4688 320.554 13.7812V13.7734C320.554 11.125 322.085 9.35156 324.453 9.35156C326.82 9.35156 328.273 11.0625 328.273 13.6094V14.2031H322.257C322.289 15.8281 323.179 16.7734 324.578 16.7734C325.664 16.7734 326.312 16.2344 326.515 15.7969L326.546 15.7344L328.179 15.7266L328.164 15.7969C327.882 16.9141 326.71 18.1641 324.539 18.1641ZM324.46 10.7422C323.304 10.7422 322.429 11.5312 322.281 12.9922H326.593C326.46 11.4766 325.609 10.7422 324.46 10.7422ZM335.194 8C334.608 8 334.132 7.52344 334.132 6.94531C334.132 6.35938 334.608 5.88281 335.194 5.88281C335.772 5.88281 336.257 6.35938 336.257 6.94531C336.257 7.52344 335.772 8 335.194 8ZM334.343 18V9.51562H336.03V18H334.343ZM338.323 18V9.51562H340.018V10.8047H340.143C340.557 9.89844 341.37 9.35156 342.604 9.35156C344.503 9.35156 345.55 10.4844 345.55 12.5078V18H343.862V12.9062C343.862 11.5 343.276 10.8047 342.034 10.8047C340.792 10.8047 340.018 11.6562 340.018 13.0234V18H338.323ZM355.143 18.0547C353.276 18.0547 352.51 17.3984 352.51 15.7656V10.8516H351.182V9.51562H352.51V7.375H354.237V9.51562H356.057V10.8516H354.237V15.3594C354.237 16.2734 354.58 16.6484 355.416 16.6484C355.674 16.6484 355.823 16.6406 356.057 16.6172V17.9688C355.784 18.0156 355.471 18.0547 355.143 18.0547ZM357.936 18V6.1875H359.631V10.8047H359.756C360.17 9.89844 360.983 9.35156 362.217 9.35156C364.115 9.35156 365.162 10.4844 365.162 12.5078V18H363.475V12.9062C363.475 11.5 362.889 10.8047 361.647 10.8047C360.404 10.8047 359.631 11.6562 359.631 13.0234V18H357.936ZM368.236 8C367.65 8 367.174 7.52344 367.174 6.94531C367.174 6.35938 367.65 5.88281 368.236 5.88281C368.814 5.88281 369.299 6.35938 369.299 6.94531C369.299 7.52344 368.814 8 368.236 8ZM367.385 18V9.51562H369.072V18H367.385ZM374.451 18.1641C372.404 18.1641 371.107 17.2031 370.943 15.7812V15.7734H372.638L372.646 15.7812C372.857 16.4219 373.474 16.8516 374.482 16.8516C375.529 16.8516 376.255 16.375 376.255 15.6797V15.6641C376.255 15.1328 375.857 14.7734 374.873 14.5469L373.521 14.2344C371.92 13.8672 371.177 13.1406 371.177 11.8984V11.8906C371.177 10.4141 372.552 9.35156 374.474 9.35156C376.412 9.35156 377.654 10.3203 377.802 11.7031V11.7109H376.185V11.6953C376.021 11.1016 375.42 10.6562 374.466 10.6562C373.537 10.6562 372.865 11.1172 372.865 11.7969V11.8125C372.865 12.3438 373.255 12.6719 374.209 12.8984L375.552 13.2031C377.185 13.5859 377.966 14.2812 377.966 15.5078V15.5234C377.966 17.0938 376.466 18.1641 374.451 18.1641ZM387.099 18.1641C385.052 18.1641 383.755 17.2031 383.591 15.7812V15.7734H385.286L385.294 15.7812C385.505 16.4219 386.122 16.8516 387.13 16.8516C388.177 16.8516 388.904 16.375 388.904 15.6797V15.6641C388.904 15.1328 388.505 14.7734 387.521 14.5469L386.169 14.2344C384.568 13.8672 383.825 13.1406 383.825 11.8984V11.8906C383.825 10.4141 385.2 9.35156 387.122 9.35156C389.06 9.35156 390.302 10.3203 390.45 11.7031V11.7109H388.833V11.6953C388.669 11.1016 388.068 10.6562 387.114 10.6562C386.185 10.6562 385.513 11.1172 385.513 11.7969V11.8125C385.513 12.3438 385.904 12.6719 386.857 12.8984L388.2 13.2031C389.833 13.5859 390.614 14.2812 390.614 15.5078V15.5234C390.614 17.0938 389.114 18.1641 387.099 18.1641ZM393.345 8C392.759 8 392.282 7.52344 392.282 6.94531C392.282 6.35938 392.759 5.88281 393.345 5.88281C393.923 5.88281 394.407 6.35938 394.407 6.94531C394.407 7.52344 393.923 8 393.345 8ZM392.493 18V9.51562H394.181V18H392.493ZM396.473 18V9.51562H398.169V10.8203H398.294C398.669 9.89062 399.497 9.35156 400.606 9.35156C401.762 9.35156 402.583 9.95312 402.958 10.8672H403.091C403.52 9.95312 404.497 9.35156 405.677 9.35156C407.387 9.35156 408.387 10.3828 408.387 12.1484V18H406.7V12.5547C406.7 11.3828 406.169 10.8047 405.059 10.8047C403.981 10.8047 403.27 11.6094 403.27 12.6328V18H401.583V12.3828C401.583 11.4141 400.95 10.8047 399.95 10.8047C398.927 10.8047 398.169 11.6797 398.169 12.7891V18H396.473ZM413.407 18.1641C411.493 18.1641 410.501 17.0156 410.501 15.0078V9.51562H412.196V14.6094C412.196 16.0156 412.711 16.7109 413.954 16.7109C415.313 16.7109 416.04 15.8594 416.04 14.4922V9.51562H417.727V18H416.04V16.7188H415.907C415.501 17.6328 414.641 18.1641 413.407 18.1641ZM420.074 18V6.1875H421.77V18H420.074ZM426.445 18.1406C424.828 18.1406 423.633 17.1562 423.633 15.6172V15.6016C423.633 14.0859 424.773 13.2031 426.797 13.0781L429.094 12.9453V12.1953C429.094 11.2656 428.508 10.75 427.359 10.75C426.422 10.75 425.805 11.0938 425.602 11.6953L425.594 11.7266H423.961L423.969 11.6719C424.172 10.2812 425.508 9.35156 427.438 9.35156C429.57 9.35156 430.773 10.4141 430.773 12.1953V18H429.094V16.7969H428.961C428.461 17.6562 427.57 18.1406 426.445 18.1406ZM425.32 15.5469C425.32 16.3281 425.984 16.7891 426.898 16.7891C428.164 16.7891 429.094 15.9609 429.094 14.8672V14.1406L427.023 14.2734C425.852 14.3438 425.32 14.7656 425.32 15.5312V15.5469ZM436.191 18.0547C434.324 18.0547 433.558 17.3984 433.558 15.7656V10.8516H432.23V9.51562H433.558V7.375H435.285V9.51562H437.105V10.8516H435.285V15.3594C435.285 16.2734 435.629 16.6484 436.465 16.6484C436.723 16.6484 436.871 16.6406 437.105 16.6172V17.9688C436.832 18.0156 436.519 18.0547 436.191 18.0547ZM439.789 8C439.203 8 438.726 7.52344 438.726 6.94531C438.726 6.35938 439.203 5.88281 439.789 5.88281C440.367 5.88281 440.851 6.35938 440.851 6.94531C440.851 7.52344 440.367 8 439.789 8ZM438.937 18V9.51562H440.625V18H438.937ZM446.511 18.1641C444.019 18.1641 442.496 16.5 442.496 13.7656V13.75C442.496 11.0234 444.027 9.35156 446.511 9.35156C448.988 9.35156 450.519 11.0156 450.519 13.75V13.7656C450.519 16.5 448.996 18.1641 446.511 18.1641ZM446.511 16.75C447.964 16.75 448.792 15.6406 448.792 13.7656V13.75C448.792 11.8672 447.964 10.7656 446.511 10.7656C445.05 10.7656 444.23 11.8672 444.23 13.75V13.7656C444.23 15.6484 445.05 16.75 446.511 16.75ZM452.366 18V9.51562H454.062V10.8047H454.187C454.601 9.89844 455.413 9.35156 456.648 9.35156C458.546 9.35156 459.593 10.4844 459.593 12.5078V18H457.905V12.9062C457.905 11.5 457.32 10.8047 456.077 10.8047C454.835 10.8047 454.062 11.6562 454.062 13.0234V18H452.366ZM463.089 18.1172C462.44 18.1172 461.94 17.6172 461.94 16.9844C461.94 16.3438 462.44 15.8438 463.089 15.8438C463.737 15.8438 464.229 16.3438 464.229 16.9844C464.229 17.6172 463.737 18.1172 463.089 18.1172Z" fill="#888888"/>
<path d="M446.273 62V52.2344H442.726V50.7266H451.562V52.2344H448.023V62H446.273ZM453.417 62V50.1875H455.113V54.8047H455.238C455.652 53.8984 456.464 53.3516 457.699 53.3516C459.597 53.3516 460.644 54.4844 460.644 56.5078V62H458.956V56.9062C458.956 55.5 458.37 54.8047 457.128 54.8047C455.886 54.8047 455.113 55.6562 455.113 57.0234V62H453.417ZM466.398 62.1641C463.913 62.1641 462.413 60.4688 462.413 57.7812V57.7734C462.413 55.125 463.944 53.3516 466.312 53.3516C468.679 53.3516 470.132 55.0625 470.132 57.6094V58.2031H464.116C464.148 59.8281 465.038 60.7734 466.437 60.7734C467.523 60.7734 468.171 60.2344 468.374 59.7969L468.405 59.7344L470.038 59.7266L470.023 59.7969C469.741 60.9141 468.569 62.1641 466.398 62.1641ZM466.319 54.7422C465.163 54.7422 464.288 55.5312 464.14 56.9922H468.452C468.319 55.4766 467.468 54.7422 466.319 54.7422ZM476.772 62V54.8516H475.374V53.5156H476.772V52.625C476.772 50.9375 477.624 50.1094 479.397 50.1094C479.772 50.1094 480.1 50.1328 480.397 50.1875V51.4297C480.241 51.4062 480.014 51.3906 479.749 51.3906C478.811 51.3906 478.444 51.8438 478.444 52.7031V53.5156H480.327V54.8516H478.46V62H476.772ZM485.323 62.1641C482.831 62.1641 481.307 60.5 481.307 57.7656V57.75C481.307 55.0234 482.838 53.3516 485.323 53.3516C487.799 53.3516 489.331 55.0156 489.331 57.75V57.7656C489.331 60.5 487.807 62.1641 485.323 62.1641ZM485.323 60.75C486.776 60.75 487.604 59.6406 487.604 57.7656V57.75C487.604 55.8672 486.776 54.7656 485.323 54.7656C483.862 54.7656 483.041 55.8672 483.041 57.75V57.7656C483.041 59.6484 483.862 60.75 485.323 60.75ZM491.178 62V53.5156H492.873V54.7969H492.998C493.303 53.8984 494.092 53.3672 495.225 53.3672C495.498 53.3672 495.795 53.4062 495.967 53.4453V55.0078C495.662 54.9453 495.373 54.9062 495.053 54.9062C493.756 54.9062 492.873 55.7031 492.873 56.9297V62H491.178ZM500.76 62.1641C498.283 62.1641 496.768 60.4766 496.768 57.7344V57.7188C496.768 55.0312 498.275 53.3516 500.752 53.3516C502.885 53.3516 504.158 54.5547 504.393 56.2031V56.2422L502.768 56.25L502.76 56.2266C502.572 55.3906 501.885 54.7656 500.76 54.7656C499.346 54.7656 498.494 55.8906 498.494 57.7188V57.7344C498.494 59.6094 499.361 60.75 500.76 60.75C501.822 60.75 502.479 60.2656 502.752 59.3516L502.768 59.3125H504.393L504.377 59.3828C504.072 61.0312 502.861 62.1641 500.76 62.1641ZM509.701 62.1641C507.217 62.1641 505.717 60.4688 505.717 57.7812V57.7734C505.717 55.125 507.248 53.3516 509.615 53.3516C511.982 53.3516 513.435 55.0625 513.435 57.6094V58.2031H507.42C507.451 59.8281 508.342 60.7734 509.74 60.7734C510.826 60.7734 511.474 60.2344 511.678 59.7969L511.709 59.7344L513.342 59.7266L513.326 59.7969C513.045 60.9141 511.873 62.1641 509.701 62.1641ZM509.623 54.7422C508.467 54.7422 507.592 55.5312 507.443 56.9922H511.756C511.623 55.4766 510.771 54.7422 509.623 54.7422ZM520.076 62V54.8516H518.677V53.5156H520.076V52.625C520.076 50.9375 520.927 50.1094 522.701 50.1094C523.076 50.1094 523.404 50.1328 523.701 50.1875V51.4297C523.544 51.4062 523.318 51.3906 523.052 51.3906C522.115 51.3906 521.747 51.8438 521.747 52.7031V53.5156H523.63V54.8516H521.763V62H520.076ZM526.243 52C525.657 52 525.181 51.5234 525.181 50.9453C525.181 50.3594 525.657 49.8828 526.243 49.8828C526.821 49.8828 527.306 50.3594 527.306 50.9453C527.306 51.5234 526.821 52 526.243 52ZM525.392 62V53.5156H527.079V62H525.392ZM532.934 62.1641C530.45 62.1641 528.95 60.4688 528.95 57.7812V57.7734C528.95 55.125 530.481 53.3516 532.849 53.3516C535.216 53.3516 536.669 55.0625 536.669 57.6094V58.2031H530.653C530.684 59.8281 531.575 60.7734 532.974 60.7734C534.059 60.7734 534.708 60.2344 534.911 59.7969L534.942 59.7344L536.575 59.7266L536.559 59.7969C536.278 60.9141 535.106 62.1641 532.934 62.1641ZM532.856 54.7422C531.7 54.7422 530.825 55.5312 530.677 56.9922H534.989C534.856 55.4766 534.005 54.7422 532.856 54.7422ZM538.587 62V50.1875H540.282V62H538.587ZM545.723 62.1406C543.59 62.1406 542.207 60.4297 542.207 57.7656V57.75C542.207 55.0625 543.567 53.3672 545.723 53.3672C546.887 53.3672 547.879 53.9453 548.332 54.8594H548.465V50.1875H550.153V62H548.465V60.6641H548.332C547.84 61.5938 546.911 62.1406 545.723 62.1406ZM546.207 60.6953C547.622 60.6953 548.489 59.5781 548.489 57.7656V57.75C548.489 55.9375 547.614 54.8203 546.207 54.8203C544.786 54.8203 543.934 55.9297 543.934 57.75V57.7656C543.934 59.5859 544.786 60.6953 546.207 60.6953ZM557.582 52C556.996 52 556.52 51.5234 556.52 50.9453C556.52 50.3594 556.996 49.8828 557.582 49.8828C558.16 49.8828 558.645 50.3594 558.645 50.9453C558.645 51.5234 558.16 52 557.582 52ZM556.73 62V53.5156H558.418V62H556.73ZM560.711 62V53.5156H562.406V54.8047H562.531C562.945 53.8984 563.758 53.3516 564.992 53.3516C566.89 53.3516 567.937 54.4844 567.937 56.5078V62H566.25V56.9062C566.25 55.5 565.664 54.8047 564.422 54.8047C563.18 54.8047 562.406 55.6562 562.406 57.0234V62H560.711ZM577.531 62.0547C575.663 62.0547 574.898 61.3984 574.898 59.7656V54.8516H573.57V53.5156H574.898V51.375H576.624V53.5156H578.445V54.8516H576.624V59.3594C576.624 60.2734 576.968 60.6484 577.804 60.6484C578.062 60.6484 578.21 60.6406 578.445 60.6172V61.9688C578.171 62.0156 577.859 62.0547 577.531 62.0547ZM580.323 62V50.1875H582.019V54.8047H582.144C582.558 53.8984 583.37 53.3516 584.605 53.3516C586.503 53.3516 587.55 54.4844 587.55 56.5078V62H585.862V56.9062C585.862 55.5 585.276 54.8047 584.034 54.8047C582.792 54.8047 582.019 55.6562 582.019 57.0234V62H580.323ZM590.624 52C590.038 52 589.561 51.5234 589.561 50.9453C589.561 50.3594 590.038 49.8828 590.624 49.8828C591.202 49.8828 591.686 50.3594 591.686 50.9453C591.686 51.5234 591.202 52 590.624 52ZM589.772 62V53.5156H591.46V62H589.772ZM596.839 62.1641C594.792 62.1641 593.495 61.2031 593.331 59.7812V59.7734H595.026L595.034 59.7812C595.245 60.4219 595.862 60.8516 596.87 60.8516C597.917 60.8516 598.643 60.375 598.643 59.6797V59.6641C598.643 59.1328 598.245 58.7734 597.26 58.5469L595.909 58.2344C594.307 57.8672 593.565 57.1406 593.565 55.8984V55.8906C593.565 54.4141 594.94 53.3516 596.862 53.3516C598.799 53.3516 600.042 54.3203 600.19 55.7031V55.7109H598.573V55.6953C598.409 55.1016 597.807 54.6562 596.854 54.6562C595.924 54.6562 595.253 55.1172 595.253 55.7969V55.8125C595.253 56.3438 595.643 56.6719 596.596 56.8984L597.94 57.2031C599.573 57.5859 600.354 58.2812 600.354 59.5078V59.5234C600.354 61.0938 598.854 62.1641 596.839 62.1641ZM609.487 62.1641C607.44 62.1641 606.143 61.2031 605.979 59.7812V59.7734H607.674L607.682 59.7812C607.893 60.4219 608.51 60.8516 609.518 60.8516C610.565 60.8516 611.291 60.375 611.291 59.6797V59.6641C611.291 59.1328 610.893 58.7734 609.908 58.5469L608.557 58.2344C606.955 57.8672 606.213 57.1406 606.213 55.8984V55.8906C606.213 54.4141 607.588 53.3516 609.51 53.3516C611.447 53.3516 612.69 54.3203 612.838 55.7031V55.7109H611.221V55.6953C611.057 55.1016 610.455 54.6562 609.502 54.6562C608.572 54.6562 607.901 55.1172 607.901 55.7969V55.8125C607.901 56.3438 608.291 56.6719 609.244 56.8984L610.588 57.2031C612.221 57.5859 613.002 58.2812 613.002 59.5078V59.5234C613.002 61.0938 611.502 62.1641 609.487 62.1641ZM615.732 52C615.146 52 614.67 51.5234 614.67 50.9453C614.67 50.3594 615.146 49.8828 615.732 49.8828C616.311 49.8828 616.795 50.3594 616.795 50.9453C616.795 51.5234 616.311 52 615.732 52ZM614.881 62V53.5156H616.568V62H614.881ZM618.861 62V53.5156H620.556V54.8203H620.681C621.056 53.8906 621.885 53.3516 622.994 53.3516C624.15 53.3516 624.97 53.9531 625.345 54.8672H625.478C625.908 53.9531 626.885 53.3516 628.064 53.3516C629.775 53.3516 630.775 54.3828 630.775 56.1484V62H629.088V56.5547C629.088 55.3828 628.556 54.8047 627.447 54.8047C626.369 54.8047 625.658 55.6094 625.658 56.6328V62H623.97V56.3828C623.97 55.4141 623.338 54.8047 622.338 54.8047C621.314 54.8047 620.556 55.6797 620.556 56.7891V62H618.861ZM635.794 62.1641C633.88 62.1641 632.888 61.0156 632.888 59.0078V53.5156H634.584V58.6094C634.584 60.0156 635.099 60.7109 636.341 60.7109C637.701 60.7109 638.427 59.8594 638.427 58.4922V53.5156H640.115V62H638.427V60.7188H638.294C637.888 61.6328 637.029 62.1641 635.794 62.1641ZM642.462 62V50.1875H644.158V62H642.462ZM648.833 62.1406C647.216 62.1406 646.021 61.1562 646.021 59.6172V59.6016C646.021 58.0859 647.161 57.2031 649.185 57.0781L651.482 56.9453V56.1953C651.482 55.2656 650.896 54.75 649.747 54.75C648.81 54.75 648.193 55.0938 647.989 55.6953L647.982 55.7266H646.349L646.357 55.6719C646.56 54.2812 647.896 53.3516 649.825 53.3516C651.958 53.3516 653.161 54.4141 653.161 56.1953V62H651.482V60.7969H651.349C650.849 61.6562 649.958 62.1406 648.833 62.1406ZM647.708 59.5469C647.708 60.3281 648.372 60.7891 649.286 60.7891C650.552 60.7891 651.482 59.9609 651.482 58.8672V58.1406L649.411 58.2734C648.239 58.3438 647.708 58.7656 647.708 59.5312V59.5469ZM658.579 62.0547C656.712 62.0547 655.946 61.3984 655.946 59.7656V54.8516H654.618V53.5156H655.946V51.375H657.673V53.5156H659.493V54.8516H657.673V59.3594C657.673 60.2734 658.016 60.6484 658.852 60.6484C659.11 60.6484 659.259 60.6406 659.493 60.6172V61.9688C659.22 62.0156 658.907 62.0547 658.579 62.0547ZM662.176 52C661.591 52 661.114 51.5234 661.114 50.9453C661.114 50.3594 661.591 49.8828 662.176 49.8828C662.755 49.8828 663.239 50.3594 663.239 50.9453C663.239 51.5234 662.755 52 662.176 52ZM661.325 62V53.5156H663.012V62H661.325ZM668.899 62.1641C666.407 62.1641 664.883 60.5 664.883 57.7656V57.75C664.883 55.0234 666.414 53.3516 668.899 53.3516C671.375 53.3516 672.907 55.0156 672.907 57.75V57.7656C672.907 60.5 671.383 62.1641 668.899 62.1641ZM668.899 60.75C670.352 60.75 671.18 59.6406 671.18 57.7656V57.75C671.18 55.8672 670.352 54.7656 668.899 54.7656C667.438 54.7656 666.618 55.8672 666.618 57.75V57.7656C666.618 59.6484 667.438 60.75 668.899 60.75ZM674.754 62V53.5156H676.449V54.8047H676.574C676.988 53.8984 677.801 53.3516 679.035 53.3516C680.934 53.3516 681.981 54.4844 681.981 56.5078V62H680.293V56.9062C680.293 55.5 679.707 54.8047 678.465 54.8047C677.223 54.8047 676.449 55.6562 676.449 57.0234V62H674.754ZM685.477 62.1172C684.828 62.1172 684.328 61.6172 684.328 60.9844C684.328 60.3438 684.828 59.8438 685.477 59.8438C686.125 59.8438 686.617 60.3438 686.617 60.9844C686.617 61.6172 686.125 62.1172 685.477 62.1172ZM374.318 82V72.2344H370.771V70.7266H379.607V72.2344H376.068V82H374.318ZM381.368 84.9844C381.157 84.9844 380.907 84.9688 380.688 84.9453V83.6094C380.853 83.6328 381.063 83.6406 381.259 83.6406C382.048 83.6406 382.517 83.3047 382.774 82.4453L382.899 82.0078L379.821 73.5156H381.649L383.774 80.2969H383.923L386.04 73.5156H387.821L384.665 82.3281C383.946 84.3594 383.087 84.9844 381.368 84.9844ZM389.364 84.8281V73.5156H391.059V74.8516H391.184C391.677 73.9219 392.606 73.3672 393.794 73.3672C395.934 73.3672 397.309 75.0781 397.309 77.75V77.7656C397.309 80.4531 395.95 82.1406 393.794 82.1406C392.63 82.1406 391.637 81.5703 391.184 80.6562H391.059V84.8281H389.364ZM393.317 80.6953C394.731 80.6953 395.583 79.5859 395.583 77.7656V77.75C395.583 75.9219 394.731 74.8203 393.317 74.8203C391.903 74.8203 391.028 75.9375 391.028 77.75V77.7656C391.028 79.5781 391.903 80.6953 393.317 80.6953ZM400.055 72C399.469 72 398.993 71.5234 398.993 70.9453C398.993 70.3594 399.469 69.8828 400.055 69.8828C400.633 69.8828 401.118 70.3594 401.118 70.9453C401.118 71.5234 400.633 72 400.055 72ZM399.204 82V73.5156H400.891V82H399.204ZM406.754 82.1641C404.278 82.1641 402.762 80.4766 402.762 77.7344V77.7188C402.762 75.0312 404.27 73.3516 406.746 73.3516C408.879 73.3516 410.153 74.5547 410.387 76.2031V76.2422L408.762 76.25L408.754 76.2266C408.567 75.3906 407.879 74.7656 406.754 74.7656C405.34 74.7656 404.489 75.8906 404.489 77.7188V77.7344C404.489 79.6094 405.356 80.75 406.754 80.75C407.817 80.75 408.473 80.2656 408.746 79.3516L408.762 79.3125H410.387L410.371 79.3828C410.067 81.0312 408.856 82.1641 406.754 82.1641ZM414.461 82.1406C412.844 82.1406 411.649 81.1562 411.649 79.6172V79.6016C411.649 78.0859 412.789 77.2031 414.813 77.0781L417.109 76.9453V76.1953C417.109 75.2656 416.524 74.75 415.375 74.75C414.438 74.75 413.82 75.0938 413.617 75.6953L413.609 75.7266H411.977L411.984 75.6719C412.188 74.2812 413.524 73.3516 415.453 73.3516C417.586 73.3516 418.789 74.4141 418.789 76.1953V82H417.109V80.7969H416.977C416.477 81.6562 415.586 82.1406 414.461 82.1406ZM413.336 79.5469C413.336 80.3281 414 80.7891 414.914 80.7891C416.18 80.7891 417.109 79.9609 417.109 78.8672V78.1406L415.039 78.2734C413.867 78.3438 413.336 78.7656 413.336 79.5312V79.5469ZM421.082 82V70.1875H422.777V82H421.082ZM425.203 82V70.1875H426.898V82H425.203ZM430.074 84.9844C429.863 84.9844 429.613 84.9688 429.394 84.9453V83.6094C429.558 83.6328 429.769 83.6406 429.964 83.6406C430.753 83.6406 431.222 83.3047 431.48 82.4453L431.605 82.0078L428.527 73.5156H430.355L432.48 80.2969H432.628L434.746 73.5156H436.527L433.371 82.3281C432.652 84.3594 431.792 84.9844 430.074 84.9844ZM445.839 82.1641C443.362 82.1641 441.847 80.4766 441.847 77.7344V77.7188C441.847 75.0312 443.354 73.3516 445.831 73.3516C447.964 73.3516 449.237 74.5547 449.472 76.2031V76.2422L447.847 76.25L447.839 76.2266C447.651 75.3906 446.964 74.7656 445.839 74.7656C444.425 74.7656 443.573 75.8906 443.573 77.7188V77.7344C443.573 79.6094 444.44 80.75 445.839 80.75C446.901 80.75 447.558 80.2656 447.831 79.3516L447.847 79.3125H449.472L449.456 79.3828C449.151 81.0312 447.94 82.1641 445.839 82.1641ZM454.811 82.1641C452.319 82.1641 450.796 80.5 450.796 77.7656V77.75C450.796 75.0234 452.327 73.3516 454.811 73.3516C457.288 73.3516 458.819 75.0156 458.819 77.75V77.7656C458.819 80.5 457.296 82.1641 454.811 82.1641ZM454.811 80.75C456.264 80.75 457.093 79.6406 457.093 77.7656V77.75C457.093 75.8672 456.264 74.7656 454.811 74.7656C453.35 74.7656 452.53 75.8672 452.53 77.75V77.7656C452.53 79.6484 453.35 80.75 454.811 80.75ZM460.667 82V73.5156H462.362V74.8203H462.487C462.862 73.8906 463.69 73.3516 464.799 73.3516C465.956 73.3516 466.776 73.9531 467.151 74.8672H467.284C467.713 73.9531 468.69 73.3516 469.87 73.3516C471.581 73.3516 472.581 74.3828 472.581 76.1484V82H470.893V76.5547C470.893 75.3828 470.362 74.8047 469.252 74.8047C468.174 74.8047 467.463 75.6094 467.463 76.6328V82H465.776V76.3828C465.776 75.4141 465.143 74.8047 464.143 74.8047C463.12 74.8047 462.362 75.6797 462.362 76.7891V82H460.667ZM474.772 84.8281V73.5156H476.467V74.8516H476.592C477.084 73.9219 478.014 73.3672 479.201 73.3672C481.342 73.3672 482.717 75.0781 482.717 77.75V77.7656C482.717 80.4531 481.358 82.1406 479.201 82.1406C478.037 82.1406 477.045 81.5703 476.592 80.6562H476.467V84.8281H474.772ZM478.725 80.6953C480.139 80.6953 480.991 79.5859 480.991 77.7656V77.75C480.991 75.9219 480.139 74.8203 478.725 74.8203C477.311 74.8203 476.436 75.9375 476.436 77.75V77.7656C476.436 79.5781 477.311 80.6953 478.725 80.6953ZM488.174 82.1641C485.682 82.1641 484.158 80.5 484.158 77.7656V77.75C484.158 75.0234 485.69 73.3516 488.174 73.3516C490.65 73.3516 492.182 75.0156 492.182 77.75V77.7656C492.182 80.5 490.658 82.1641 488.174 82.1641ZM488.174 80.75C489.627 80.75 490.455 79.6406 490.455 77.7656V77.75C490.455 75.8672 489.627 74.7656 488.174 74.7656C486.713 74.7656 485.893 75.8672 485.893 77.75V77.7656C485.893 79.6484 486.713 80.75 488.174 80.75ZM497.115 82.1641C495.068 82.1641 493.771 81.2031 493.607 79.7812V79.7734H495.303L495.31 79.7812C495.521 80.4219 496.139 80.8516 497.146 80.8516C498.193 80.8516 498.92 80.375 498.92 79.6797V79.6641C498.92 79.1328 498.521 78.7734 497.537 78.5469L496.185 78.2344C494.584 77.8672 493.842 77.1406 493.842 75.8984V75.8906C493.842 74.4141 495.217 73.3516 497.139 73.3516C499.076 73.3516 500.318 74.3203 500.467 75.7031V75.7109H498.849V75.6953C498.685 75.1016 498.084 74.6562 497.131 74.6562C496.201 74.6562 495.529 75.1172 495.529 75.7969V75.8125C495.529 76.3438 495.92 76.6719 496.873 76.8984L498.217 77.2031C499.849 77.5859 500.631 78.2812 500.631 79.5078V79.5234C500.631 81.0938 499.131 82.1641 497.115 82.1641ZM503.361 72C502.775 72 502.298 71.5234 502.298 70.9453C502.298 70.3594 502.775 69.8828 503.361 69.8828C503.939 69.8828 504.423 70.3594 504.423 70.9453C504.423 71.5234 503.939 72 503.361 72ZM502.509 82V73.5156H504.197V82H502.509ZM509.693 82.0547C507.826 82.0547 507.06 81.3984 507.06 79.7656V74.8516H505.732V73.5156H507.06V71.375H508.786V73.5156H510.607V74.8516H508.786V79.3594C508.786 80.2734 509.13 80.6484 509.966 80.6484C510.224 80.6484 510.372 80.6406 510.607 80.6172V81.9688C510.333 82.0156 510.021 82.0547 509.693 82.0547ZM515.876 82.1641C513.392 82.1641 511.892 80.4688 511.892 77.7812V77.7734C511.892 75.125 513.423 73.3516 515.79 73.3516C518.157 73.3516 519.611 75.0625 519.611 77.6094V78.2031H513.595C513.626 79.8281 514.517 80.7734 515.915 80.7734C517.001 80.7734 517.65 80.2344 517.853 79.7969L517.884 79.7344L519.517 79.7266L519.501 79.7969C519.22 80.9141 518.048 82.1641 515.876 82.1641ZM515.798 74.7422C514.642 74.7422 513.767 75.5312 513.618 76.9922H517.931C517.798 75.4766 516.946 74.7422 515.798 74.7422ZM524.544 82.1406C522.411 82.1406 521.028 80.4297 521.028 77.7656V77.75C521.028 75.0625 522.388 73.3672 524.544 73.3672C525.708 73.3672 526.7 73.9453 527.153 74.8594H527.286V70.1875H528.974V82H527.286V80.6641H527.153C526.661 81.5938 525.731 82.1406 524.544 82.1406ZM525.028 80.6953C526.442 80.6953 527.31 79.5781 527.31 77.7656V77.75C527.31 75.9375 526.435 74.8203 525.028 74.8203C523.606 74.8203 522.755 75.9297 522.755 77.75V77.7656C522.755 79.5859 523.606 80.6953 525.028 80.6953ZM537.153 82L534.809 73.5156H536.512L538.036 80.0625H538.161L539.911 73.5156H541.52L543.27 80.0625H543.403L544.918 73.5156H546.598L544.262 82H542.52L540.762 75.6719H540.629L538.879 82H537.153ZM549.039 72C548.453 72 547.977 71.5234 547.977 70.9453C547.977 70.3594 548.453 69.8828 549.039 69.8828C549.617 69.8828 550.102 70.3594 550.102 70.9453C550.102 71.5234 549.617 72 549.039 72ZM548.188 82V73.5156H549.875V82H548.188ZM555.371 82.0547C553.504 82.0547 552.738 81.3984 552.738 79.7656V74.8516H551.41V73.5156H552.738V71.375H554.465V73.5156H556.285V74.8516H554.465V79.3594C554.465 80.2734 554.809 80.6484 555.645 80.6484C555.902 80.6484 556.051 80.6406 556.285 80.6172V81.9688C556.012 82.0156 555.699 82.0547 555.371 82.0547ZM558.164 82V70.1875H559.859V74.8047H559.984C560.398 73.8984 561.211 73.3516 562.445 73.3516C564.344 73.3516 565.39 74.4844 565.39 76.5078V82H563.703V76.9062C563.703 75.5 563.117 74.8047 561.875 74.8047C560.633 74.8047 559.859 75.6562 559.859 77.0234V82H558.164ZM571.781 82V73.5156H573.476V74.8203H573.601C573.976 73.8906 574.804 73.3516 575.913 73.3516C577.07 73.3516 577.89 73.9531 578.265 74.8672H578.398C578.827 73.9531 579.804 73.3516 580.984 73.3516C582.695 73.3516 583.695 74.3828 583.695 76.1484V82H582.007V76.5547C582.007 75.3828 581.476 74.8047 580.367 74.8047C579.288 74.8047 578.577 75.6094 578.577 76.6328V82H576.89V76.3828C576.89 75.4141 576.257 74.8047 575.257 74.8047C574.234 74.8047 573.476 75.6797 573.476 76.7891V82H571.781ZM588.714 82.1641C586.8 82.1641 585.808 81.0156 585.808 79.0078V73.5156H587.503V78.6094C587.503 80.0156 588.019 80.7109 589.261 80.7109C590.62 80.7109 591.347 79.8594 591.347 78.4922V73.5156H593.034V82H591.347V80.7188H591.214C590.808 81.6328 589.948 82.1641 588.714 82.1641ZM595.382 82V70.1875H597.077V82H595.382ZM602.628 82.0547C600.76 82.0547 599.995 81.3984 599.995 79.7656V74.8516H598.667V73.5156H599.995V71.375H601.721V73.5156H603.542V74.8516H601.721V79.3594C601.721 80.2734 602.065 80.6484 602.901 80.6484C603.159 80.6484 603.307 80.6406 603.542 80.6172V81.9688C603.268 82.0156 602.956 82.0547 602.628 82.0547ZM606.225 72C605.639 72 605.163 71.5234 605.163 70.9453C605.163 70.3594 605.639 69.8828 606.225 69.8828C606.803 69.8828 607.288 70.3594 607.288 70.9453C607.288 71.5234 606.803 72 606.225 72ZM605.374 82V73.5156H607.061V82H605.374ZM609.354 84.8281V73.5156H611.049V74.8516H611.174C611.666 73.9219 612.596 73.3672 613.783 73.3672C615.924 73.3672 617.299 75.0781 617.299 77.75V77.7656C617.299 80.4531 615.94 82.1406 613.783 82.1406C612.619 82.1406 611.627 81.5703 611.174 80.6562H611.049V84.8281H609.354ZM613.307 80.6953C614.721 80.6953 615.573 79.5859 615.573 77.7656V77.75C615.573 75.9219 614.721 74.8203 613.307 74.8203C611.893 74.8203 611.018 75.9375 611.018 77.75V77.7656C611.018 79.5781 611.893 80.6953 613.307 80.6953ZM619.24 82V70.1875H620.936V82H619.24ZM626.846 82.1641C624.361 82.1641 622.861 80.4688 622.861 77.7812V77.7734C622.861 75.125 624.392 73.3516 626.76 73.3516C629.127 73.3516 630.58 75.0625 630.58 77.6094V78.2031H624.564C624.596 79.8281 625.486 80.7734 626.885 80.7734C627.971 80.7734 628.619 80.2344 628.822 79.7969L628.853 79.7344L630.486 79.7266L630.471 79.7969C630.189 80.9141 629.017 82.1641 626.846 82.1641ZM626.767 74.7422C625.611 74.7422 624.736 75.5312 624.588 76.9922H628.9C628.767 75.4766 627.916 74.7422 626.767 74.7422ZM637.22 82V74.8516H635.822V73.5156H637.22V72.625C637.22 70.9375 638.072 70.1094 639.845 70.1094C640.22 70.1094 640.548 70.1328 640.845 70.1875V71.4297C640.689 71.4062 640.462 71.3906 640.197 71.3906C639.259 71.3906 638.892 71.8438 638.892 72.7031V73.5156H640.775V74.8516H638.908V82H637.22ZM645.771 82.1641C643.278 82.1641 641.755 80.5 641.755 77.7656V77.75C641.755 75.0234 643.286 73.3516 645.771 73.3516C648.247 73.3516 649.778 75.0156 649.778 77.75V77.7656C649.778 80.5 648.255 82.1641 645.771 82.1641ZM645.771 80.75C647.224 80.75 648.052 79.6406 648.052 77.7656V77.75C648.052 75.8672 647.224 74.7656 645.771 74.7656C644.31 74.7656 643.489 75.8672 643.489 77.75V77.7656C643.489 79.6484 644.31 80.75 645.771 80.75ZM651.626 82V73.5156H653.321V74.7969H653.446C653.751 73.8984 654.54 73.3672 655.673 73.3672C655.946 73.3672 656.243 73.4062 656.415 73.4453V75.0078C656.11 74.9453 655.821 74.9062 655.501 74.9062C654.204 74.9062 653.321 75.7031 653.321 76.9297V82H651.626ZM661.208 82.1641C658.731 82.1641 657.216 80.4766 657.216 77.7344V77.7188C657.216 75.0312 658.723 73.3516 661.2 73.3516C663.333 73.3516 664.606 74.5547 664.841 76.2031V76.2422L663.216 76.25L663.208 76.2266C663.02 75.3906 662.333 74.7656 661.208 74.7656C659.794 74.7656 658.942 75.8906 658.942 77.7188V77.7344C658.942 79.6094 659.809 80.75 661.208 80.75C662.27 80.75 662.926 80.2656 663.2 79.3516L663.216 79.3125H664.841L664.825 79.3828C664.52 81.0312 663.309 82.1641 661.208 82.1641ZM670.149 82.1641C667.664 82.1641 666.164 80.4688 666.164 77.7812V77.7734C666.164 75.125 667.696 73.3516 670.063 73.3516C672.43 73.3516 673.883 75.0625 673.883 77.6094V78.2031H667.868C667.899 79.8281 668.789 80.7734 670.188 80.7734C671.274 80.7734 671.922 80.2344 672.125 79.7969L672.157 79.7344L673.789 79.7266L673.774 79.7969C673.493 80.9141 672.321 82.1641 670.149 82.1641ZM670.071 74.7422C668.914 74.7422 668.039 75.5312 667.891 76.9922H672.204C672.071 75.4766 671.219 74.7422 670.071 74.7422ZM678.809 82.1641C676.762 82.1641 675.465 81.2031 675.301 79.7812V79.7734H676.996L677.004 79.7812C677.215 80.4219 677.832 80.8516 678.84 80.8516C679.887 80.8516 680.613 80.375 680.613 79.6797V79.6641C680.613 79.1328 680.215 78.7734 679.231 78.5469L677.879 78.2344C676.278 77.8672 675.535 77.1406 675.535 75.8984V75.8906C675.535 74.4141 676.91 73.3516 678.832 73.3516C680.77 73.3516 682.012 74.3203 682.16 75.7031V75.7109H680.543V75.6953C680.379 75.1016 679.778 74.6562 678.824 74.6562C677.895 74.6562 677.223 75.1172 677.223 75.7969V75.8125C677.223 76.3438 677.613 76.6719 678.567 76.8984L679.91 77.2031C681.543 77.5859 682.324 78.2812 682.324 79.5078V79.5234C682.324 81.0938 680.824 82.1641 678.809 82.1641ZM685.477 82.1172C684.828 82.1172 684.328 81.6172 684.328 80.9844C684.328 80.3438 684.828 79.8438 685.477 79.8438C686.125 79.8438 686.617 80.3438 686.617 80.9844C686.617 81.6172 686.125 82.1172 685.477 82.1172Z" fill="#888888"/>
<path d="M435.25 121C435.25 121.414 435.586 121.75 436 121.75C436.414 121.75 436.75 121.414 436.75 121H435.25ZM529.53 89.4697C529.237 89.1768 528.763 89.1768 528.47 89.4697L523.697 94.2426C523.404 94.5355 523.404 95.0104 523.697 95.3033C523.99 95.5962 524.464 95.5962 524.757 95.3033L529 91.0607L533.243 95.3033C533.536 95.5962 534.01 95.5962 534.303 95.3033C534.596 95.0104 534.596 94.5355 534.303 94.2426L529.53 89.4697ZM529 90H529.75H529ZM436 121H436.75H436ZM449 108.75H511V107.25H449V108.75ZM511 108.75C521.355 108.75 529.75 100.355 529.75 90H528.25C528.25 99.5269 520.527 107.25 511 107.25V108.75ZM436.75 121C436.75 114.235 442.235 108.75 449 108.75V107.25C441.406 107.25 435.25 113.406 435.25 121H436.75Z" fill="#888888"/>
<path d="M293.25 121C293.25 121.414 293.586 121.75 294 121.75C294.414 121.75 294.75 121.414 294.75 121H293.25ZM233.53 27.4697C233.237 27.1768 232.763 27.1768 232.47 27.4697L227.697 32.2426C227.404 32.5355 227.404 33.0104 227.697 33.3033C227.99 33.5962 228.464 33.5962 228.757 33.3033L233 29.0607L237.243 33.3033C237.536 33.5962 238.01 33.5962 238.303 33.3033C238.596 33.0104 238.596 32.5355 238.303 32.2426L233.53 27.4697ZM294.75 121V92H293.25V121H294.75ZM270 67.25H257V68.75H270V67.25ZM233.75 44V28H232.25V44H233.75ZM257 67.25C244.159 67.25 233.75 56.8406 233.75 44H232.25C232.25 57.669 243.331 68.75 257 68.75V67.25ZM294.75 92C294.75 78.331 283.669 67.25 270 67.25V68.75C282.841 68.75 293.25 79.1594 293.25 92H294.75Z" fill="#888888"/>
</svg>
